<svg width="30.000000" height="30.000000" viewBox="0 0 30 30" fill="none" xmlns="http://www.w3.org/2000/svg" xmlns:xlink="http://www.w3.org/1999/xlink">
	<desc>
			Created with Pixso.
	</desc>
	<defs/>
	<rect id="Frame 21" width="30.000000" height="30.000000" fill="#FFFFFF" fill-opacity="0"/>
	<path id="Union" d="M4.29297 4.29272C4.68896 3.89697 5.31152 3.89697 5.70752 4.29272L15 13.5857L24.293 4.29272C24.689 3.89697 25.3115 3.89697 25.7075 4.29272C26.1035 4.68872 26.1035 5.31104 25.7075 5.70703L16.4146 15L25.7075 24.2927C26.1035 24.6887 26.1035 25.311 25.7075 25.707C25.3115 26.103 24.689 26.103 24.293 25.707L15 16.4141L5.70752 25.707C5.31152 26.103 4.68896 26.103 4.29297 25.707C3.89697 25.311 3.89697 24.6887 4.29297 24.2927L13.5859 15L4.29297 5.70703C3.89697 5.31104 3.89697 4.68872 4.29297 4.29272Z" clip-rule="evenodd" fill="#111111" fill-opacity="0.500000" fill-rule="evenodd"/>
</svg>
