<svg width="40.000000" height="40.000000" viewBox="0 0 40 40" fill="none" xmlns="http://www.w3.org/2000/svg" xmlns:xlink="http://www.w3.org/1999/xlink">
	<desc>
			Created with Pixso.
	</desc>
	<defs>
		<clipPath id="clip1_2094">
			<rect id="Phone_Icon" width="20.000000" height="20.000000" transform="translate(10.000000 10.000000)" fill="white" fill-opacity="0"/>
		</clipPath>
	</defs>
	<circle id="Ellipse 7" cx="20.000000" cy="20.000000" r="20.000000" fill="#2B7AF1" fill-opacity="1.000000"/>
	<rect id="Phone_Icon" width="20.000000" height="20.000000" transform="translate(10.000000 10.000000)" fill="#FFFFFF" fill-opacity="0"/>
	<g clip-path="url(#clip1_2094)">
		<path id="Vector" d="M22.7061 23.3174L24.1064 21.9174C24.2949 21.7311 24.5332 21.6037 24.793 21.5504C25.0527 21.4972 25.3223 21.5204 25.5688 21.6174L27.2749 22.2986C27.5244 22.3998 27.7378 22.5725 27.8892 22.7949C28.0405 23.0174 28.1226 23.2796 28.125 23.5486L28.125 26.6736C28.1235 26.8566 28.085 27.0374 28.0117 27.2051C27.939 27.3729 27.8325 27.524 27.6992 27.6496C27.5659 27.7751 27.4092 27.8724 27.2373 27.9356C27.0654 27.9988 26.8828 28.0266 26.7002 28.0174C14.7437 27.2736 12.3311 17.1486 11.875 13.2736C11.854 13.0833 11.873 12.8907 11.9316 12.7084C11.9902 12.5262 12.0869 12.3584 12.2148 12.2161C12.3433 12.0738 12.5 11.9602 12.6753 11.8829C12.8501 11.8056 13.04 11.7662 13.2314 11.7674L16.25 11.7674C16.5195 11.7682 16.7822 11.8495 17.0054 12.001C17.228 12.1525 17.4004 12.3671 17.5 12.6174L18.1812 14.3236C18.2812 14.5693 18.3071 14.839 18.2549 15.0991C18.2026 15.3592 18.0747 15.5982 17.8877 15.7861L16.4873 17.1861C16.4873 17.1861 17.2939 22.6424 22.7061 23.3174Z" fill="#FFFFFF" fill-opacity="1.000000" fill-rule="nonzero"/>
	</g>
</svg>
