<svg width="40.000000" height="40.000000" viewBox="0 0 40 40" fill="none" xmlns="http://www.w3.org/2000/svg" xmlns:xlink="http://www.w3.org/1999/xlink">
	<desc>
			Created with Pixso.
	</desc>
	<defs>
		<clipPath id="clip1_4968">
			<rect id="Phone_Icon" width="20.000000" height="20.000000" transform="translate(10.000000 10.000000)" fill="white" fill-opacity="0"/>
		</clipPath>
	</defs>
	<circle id="Ellipse 7" cx="20.000000" cy="20.000000" r="20.000000" fill="#FFFFFF" fill-opacity="1.000000"/>
	<rect id="Phone_Icon" width="20.000000" height="20.000000" transform="translate(10.000000 10.000000)" fill="#FFFFFF" fill-opacity="0"/>
	<g clip-path="url(#clip1_4968)">
		<path id="Vector" d="M22.8396 23.55L24.2396 22.1501C24.4282 21.9639 24.6667 21.8364 24.9263 21.783C25.1859 21.7297 25.4554 21.7532 25.7021 21.8501L27.4083 22.5312C27.6576 22.6326 27.8713 22.8052 28.0226 23.0276C28.1738 23.25 28.2559 23.5122 28.2583 23.7812L28.2583 26.9062C28.2569 27.0894 28.2184 27.27 28.1453 27.4377C28.0721 27.6055 27.9657 27.7566 27.8326 27.8823C27.6995 28.0078 27.5423 28.105 27.3705 28.1682C27.1989 28.2314 27.0161 28.2593 26.8333 28.25C14.8771 27.5063 12.4646 17.3813 12.0083 13.5063C11.9871 13.3159 12.0065 13.1233 12.0651 12.9412C12.1237 12.7588 12.2203 12.5911 12.3484 12.4487C12.4765 12.3064 12.6333 12.1929 12.8084 12.1155C12.9836 12.0383 13.1731 11.9988 13.3646 12L16.3833 12C16.6527 12.0007 16.9157 12.0823 17.1384 12.2336C17.3612 12.3853 17.5336 12.5999 17.6333 12.8501L18.3146 14.5564C18.4147 14.802 18.4403 15.0718 18.3881 15.3318C18.3358 15.5918 18.2081 15.8308 18.0208 16.0188L16.6208 17.4187C16.6208 17.4187 17.4271 22.875 22.8396 23.55Z" fill="#2B7AF1" fill-opacity="1.000000" fill-rule="nonzero"/>
	</g>
</svg>
