<svg width="40.000000" height="40.000000" viewBox="0 0 40 40" fill="none" xmlns="http://www.w3.org/2000/svg" xmlns:xlink="http://www.w3.org/1999/xlink">
	<desc>
			Created with Pixso.
	</desc>
	<defs>
		<clipPath id="clip1_4958">
			<rect id="carbon:email" width="20.000000" height="20.000000" transform="translate(10.000000 10.000000)" fill="white" fill-opacity="0"/>
		</clipPath>
	</defs>
	<circle id="Ellipse 6" cx="20.000000" cy="20.000000" r="20.000000" fill="#FFFFFF" fill-opacity="1.000000"/>
	<rect id="carbon:email" width="20.000000" height="20.000000" transform="translate(10.000000 10.000000)" fill="#FFFFFF" fill-opacity="0"/>
	<g clip-path="url(#clip1_4958)">
		<path id="Vector" d="M28.4025 13L11.5975 13C11.4391 13.0002 11.2871 13.0608 11.1752 13.1687C11.0631 13.2766 11.0001 13.4229 11 13.5754L11 14.7327C11 14.7861 11.0601 14.8472 11.1091 14.8721L19.9423 19.7283C19.9648 19.7407 19.9905 19.7471 20.0166 19.7468C20.0432 19.7468 20.0693 19.74 20.0923 19.7271L28.6584 14.8767C28.7067 14.8508 28.8342 14.7825 28.8822 14.751C28.9402 14.7129 29 14.6785 29 14.6104L29 13.5752C28.9998 13.4226 28.9368 13.2764 28.8248 13.1687C28.7128 13.0608 28.5609 13.0002 28.4025 13Z" fill="#2B7AF1" fill-opacity="1.000000" fill-rule="nonzero"/>
		<path id="Vector" d="M28.9254 16.4778C28.9023 16.4651 28.8763 16.4585 28.8499 16.4587C28.8234 16.459 28.7974 16.4658 28.7745 16.4788L23.927 19.2239C23.9076 19.2346 23.8911 19.2495 23.8785 19.2673C23.8661 19.2852 23.8579 19.3057 23.8546 19.3269C23.8513 19.3481 23.8531 19.3699 23.8597 19.3904C23.8665 19.4109 23.8778 19.4297 23.8931 19.4456L28.7413 24.4758C28.7552 24.4905 28.7721 24.502 28.7909 24.5098C28.8097 24.5178 28.8301 24.5217 28.8506 24.5217C28.8901 24.5217 28.9281 24.5066 28.9561 24.4795C28.9841 24.4526 28.9999 24.416 28.9999 24.3779L28.9999 16.6025C29 16.5774 28.9932 16.5525 28.9801 16.5305C28.967 16.5085 28.9481 16.4905 28.9254 16.4778Z" fill="#2B7AF1" fill-opacity="1.000000" fill-rule="nonzero"/>
		<path id="Vector" d="M22.53 20.1458C22.5071 20.1216 22.4761 20.1057 22.4425 20.1008C22.4088 20.0962 22.3745 20.1025 22.3451 20.1191L20.4021 21.2197C20.2882 21.283 20.1592 21.3167 20.0277 21.3174C19.8962 21.3184 19.7668 21.2861 19.6521 21.2244L17.9421 20.2839C17.9146 20.269 17.8827 20.2627 17.8511 20.2661C17.8195 20.2695 17.7899 20.2827 17.7666 20.3035L11.2731 26.1008C11.256 26.116 11.2429 26.135 11.2349 26.156C11.2268 26.177 11.2239 26.1997 11.2266 26.2219C11.2291 26.2441 11.2371 26.2656 11.2498 26.2844C11.2625 26.3032 11.2795 26.3188 11.2997 26.3303C11.4006 26.3875 11.4982 26.4146 11.5973 26.4146L28.2305 26.4146C28.2595 26.4148 28.288 26.4065 28.3124 26.3911C28.3367 26.3757 28.3557 26.3538 28.3672 26.3281C28.3788 26.3025 28.3824 26.2742 28.3776 26.2466C28.3727 26.219 28.3595 26.1934 28.3396 26.1731L22.53 20.1458Z" fill="#2B7AF1" fill-opacity="1.000000" fill-rule="nonzero"/>
		<path id="Vector" d="M16.3378 19.6179C16.355 19.6025 16.3683 19.5835 16.3765 19.5625C16.3845 19.5413 16.3875 19.5186 16.3849 19.4963C16.3822 19.4739 16.3741 19.4524 16.3613 19.4336C16.3485 19.4146 16.3312 19.3989 16.3109 19.3877L11.2228 16.5906C11.2001 16.5781 11.1744 16.5715 11.1483 16.5718C11.1222 16.572 11.0966 16.5786 11.074 16.5913C11.0514 16.604 11.0327 16.6221 11.0198 16.644C11.0067 16.6658 11 16.6904 11 16.7156L11 24.0552C10.9999 24.083 11.0082 24.1106 11.024 24.134C11.04 24.1575 11.0626 24.176 11.0894 24.1873C11.1161 24.1985 11.1456 24.2019 11.1743 24.197C11.203 24.1924 11.2296 24.1797 11.2509 24.1604L16.3378 19.6179Z" fill="#2B7AF1" fill-opacity="1.000000" fill-rule="nonzero"/>
	</g>
</svg>
