<svg width="40.000000" height="40.000000" viewBox="0 0 40 40" fill="none" xmlns="http://www.w3.org/2000/svg" xmlns:xlink="http://www.w3.org/1999/xlink">
	<desc>
			Created with Pixso.
	</desc>
	<defs/>
	<circle id="Ellipse" cx="20.000000" cy="20.000000" r="20.000000" fill="#2B7AF1" fill-opacity="1.000000"/>
	<path id="Vector" d="M29 13.8191C29 12.3218 27.6787 11.0005 26.1812 11.0005L14.8188 11.0005C13.3213 11.0005 12 12.3218 12 13.8191L12 25.1819C12 26.6792 13.3213 28.0005 14.8188 28.0005L20.5439 28.0005L20.5439 21.5703L18.4302 21.5703L18.4302 18.7517L20.5439 18.7517L20.5439 17.6067C20.5439 15.6689 21.9531 13.9954 23.7148 13.9954L26.0054 13.9954L26.0054 16.814L23.7148 16.814C23.4507 16.814 23.1865 17.0781 23.1865 17.6067L23.1865 18.7517L26.0054 18.7517L26.0054 21.5703L23.1865 21.5703L23.1865 28.0005L26.1812 28.0005C27.6787 28.0005 29 26.6792 29 25.1819L29 13.8191Z" fill="#FFFFFF" fill-opacity="1.000000" fill-rule="nonzero"/>
</svg>
