<svg width="20.000000" height="20.000000" viewBox="0 0 20 20" fill="none" xmlns="http://www.w3.org/2000/svg" xmlns:xlink="http://www.w3.org/1999/xlink">
	<desc>
			Created with Pixso.
	</desc>
	<defs/>
	<circle id="Ellipse" cx="10.000000" cy="10.000000" r="10.000000" fill="#FFFFFF" fill-opacity="1.000000"/>
	<path id="Vector" d="M14.5 6.9C14.5 6.16 13.83 5.5 13.09 5.5L7.4 5.5C6.66 5.5 6 6.16 6 6.9L6 12.59C6 13.33 6.66 14 7.4 14L10.27 14L10.27 10.78L9.21 10.78L9.21 9.37L10.27 9.37L10.27 8.8C10.27 7.83 10.97 6.99 11.85 6.99L13 6.99L13 8.4L11.85 8.4C11.72 8.4 11.59 8.53 11.59 8.8L11.59 9.37L13 9.37L13 10.78L11.59 10.78L11.59 14L13.09 14C13.83 14 14.5 13.33 14.5 12.59L14.5 6.9Z" fill="#2B7AF1" fill-opacity="1.000000" fill-rule="nonzero"/>
</svg>
