<svg width="80.000000" height="80.000000" viewBox="0 0 80 80" fill="none" xmlns="http://www.w3.org/2000/svg" xmlns:xlink="http://www.w3.org/1999/xlink">
	<desc>
			Created with Pixso.
	</desc>
	<defs>
		<clipPath id="clip1_2244">
			<rect id="review 2" width="80.000000" height="80.000000" fill="white" fill-opacity="0"/>
		</clipPath>
		<linearGradient id="paint_linear_1_2250_0" x1="38.745117" y1="66.201508" x2="42.023914" y2="66.037727" gradientUnits="userSpaceOnUse">
			<stop stop-color="#FF7A00"/>
			<stop offset="1.000000" stop-color="#FFB039"/>
		</linearGradient>
		<linearGradient id="paint_linear_1_2253_0" x1="40.074219" y1="8.990307" x2="43.238876" y2="8.832000" gradientUnits="userSpaceOnUse">
			<stop stop-color="#FF7A00"/>
			<stop offset="1.000000" stop-color="#FFB039"/>
		</linearGradient>
		<linearGradient id="paint_linear_1_2256_0" x1="15.220703" y1="20.403742" x2="18.345085" y2="20.247524" gradientUnits="userSpaceOnUse">
			<stop stop-color="#FF7A00"/>
			<stop offset="1.000000" stop-color="#FFB039"/>
		</linearGradient>
		<linearGradient id="paint_linear_1_2259_0" x1="31.020996" y1="20.403742" x2="34.145370" y2="20.247524" gradientUnits="userSpaceOnUse">
			<stop stop-color="#FF7A00"/>
			<stop offset="1.000000" stop-color="#FFB039"/>
		</linearGradient>
		<linearGradient id="paint_linear_1_2265_0" x1="46.852539" y1="46.033382" x2="49.976921" y2="45.877163" gradientUnits="userSpaceOnUse">
			<stop stop-color="#FF7A00"/>
			<stop offset="1.000000" stop-color="#FFB039"/>
		</linearGradient>
		<linearGradient id="paint_linear_1_2268_0" x1="62.125977" y1="46.033627" x2="65.250359" y2="45.877407" gradientUnits="userSpaceOnUse">
			<stop stop-color="#FF7A00"/>
			<stop offset="1.000000" stop-color="#FFB039"/>
		</linearGradient>
	</defs>
	<rect id="review 2" width="80.000000" height="80.000000" fill="#FFFFFF" fill-opacity="0"/>
	<g clip-path="url(#clip1_2244)">
		<path id="Vector" d="M56.0518 26.2639C53.7183 26.2639 51.4351 26.5961 49.2339 27.2502C49.3208 26.4086 49.3657 25.5547 49.3657 24.6905C49.3657 20.736 48.458 16.9574 46.6685 13.46C46.2749 12.6919 45.334 12.388 44.5659 12.7809C43.7979 13.1742 43.4941 14.1153 43.8867 14.8835C45.4492 17.9358 46.2412 21.2353 46.2412 24.6903C46.2412 36.5779 36.5703 46.2488 24.6826 46.2488C21.9116 46.2488 19.2124 45.7299 16.6611 44.706C16.0806 44.4737 15.417 44.6091 14.9746 45.0513L11.5605 48.4659L11.5605 42.5494C11.5605 42.0826 11.3516 41.6401 10.9907 41.3432C5.9917 37.2277 3.12451 31.158 3.12451 24.6903C3.12451 12.8028 12.7954 3.13187 24.6826 3.13187C27.5522 3.13187 30.3379 3.68593 32.9624 4.77873C33.8096 5.13124 34.6426 5.54295 35.439 6.00249C36.1865 6.43343 37.1416 6.17734 37.5728 5.42999C38.0039 4.6828 37.7476 3.72733 37.0005 3.29623C36.0884 2.77014 35.1338 2.29826 34.1636 1.89436C31.1562 0.642319 27.9668 0.00732422 24.6831 0.00732422C11.0728 0.00732422 0 11.0802 0 24.6903C0 31.8461 3.06494 38.5761 8.43604 43.2722L8.43604 52.2373C8.43604 52.8691 8.81689 53.4388 9.40039 53.6806C9.59375 53.7606 9.79639 53.7995 9.99805 53.7995C10.4043 53.7995 10.8037 53.6407 11.103 53.342L16.4717 47.9731C19.1045 48.9026 21.8613 49.3732 24.6831 49.3732C27.2993 49.3732 29.8208 48.9626 32.189 48.2049C32.1333 48.8724 32.1035 49.5424 32.1035 50.2119C32.1035 53.8691 32.9067 57.3801 34.4912 60.6478C34.7612 61.2043 35.3179 61.5287 35.8979 61.5287C36.1265 61.5287 36.3589 61.4784 36.5781 61.3718C37.3545 60.9954 37.6787 60.0609 37.3022 59.2845C35.9258 56.4454 35.2275 53.3931 35.2275 50.2121C35.2275 49.0948 35.3188 47.9759 35.4961 46.8751C41.9365 43.723 46.811 37.8482 48.6099 30.7591C50.9814 29.85 53.481 29.3883 56.0518 29.3883C67.5337 29.3883 76.8755 38.7299 76.8755 50.2121C76.8755 56.5907 74.0093 62.5313 69.0117 66.5112C68.6392 66.8074 68.4224 67.2573 68.4224 67.7332L68.4224 74.6592L64.1431 70.38C63.7266 69.9632 63.1108 69.8165 62.5513 70.0003C60.458 70.6875 58.271 71.0361 56.0518 71.0361C52.8765 71.0361 49.8286 70.3404 46.9937 68.9684C46.2173 68.5928 45.2827 68.9174 44.9067 69.6942C44.5312 70.4707 44.856 71.405 45.6328 71.7809C48.8955 73.3596 52.4014 74.1603 56.0518 74.1603C58.2764 74.1603 60.4741 73.8553 62.5977 73.2525L68.8804 79.535C69.1792 79.8339 69.5786 79.9925 69.9854 79.9925C70.1865 79.9925 70.3896 79.9536 70.5825 79.8736C71.166 79.6317 71.5469 79.0622 71.5469 78.4303L71.5469 68.4709C76.9292 63.9046 80 57.2932 80 50.2119C80 37.0071 69.2568 26.2639 56.0518 26.2639Z" fill="#2B7AF1" fill-opacity="1.000000" fill-rule="nonzero"/>
		<path id="Vector" d="M41.5498 65.1562C41.502 65.1099 41.4541 65.0634 41.4067 65.0163C40.7944 64.409 39.8052 64.4135 39.1978 65.0262C38.5903 65.6388 38.5947 66.628 39.2075 67.2354C39.2627 67.2901 39.3179 67.3441 39.3735 67.3982C39.6772 67.6929 40.0698 67.8393 40.4614 67.8393C40.8691 67.8393 41.2764 67.6805 41.583 67.3652C42.1836 66.746 42.1689 65.7569 41.5498 65.1562Z" fill="url(#paint_linear_1_2250_0)" fill-opacity="1.000000" fill-rule="nonzero"/>
		<path id="Vector" d="M42.7964 7.92198C42.1182 7.19807 41.1333 7.30495 40.5728 7.82683C40.0127 8.34824 39.8359 9.32307 40.5093 10.0514C40.5142 10.0564 40.519 10.0615 40.5239 10.0665C40.8608 10.4214 41.271 10.5734 41.6675 10.5734C42.0742 10.5734 42.4658 10.4129 42.748 10.147C43.3047 9.62167 43.4746 8.64574 42.7964 7.92198Z" fill="url(#paint_linear_1_2253_0)" fill-opacity="1.000000" fill-rule="nonzero"/>
		<path id="Vector" d="M17.8872 19.2994C17.5967 19.0087 17.1953 18.8416 16.7827 18.8416C16.3721 18.8416 15.9688 19.0087 15.6782 19.2994C15.3877 19.5898 15.2207 19.9928 15.2207 20.4037C15.2207 20.8147 15.3877 21.2177 15.6782 21.5083C15.9688 21.7989 16.3721 21.9659 16.7827 21.9659C17.1938 21.9659 17.5967 21.7989 17.8872 21.5083C18.1797 21.2177 18.3452 20.8147 18.3452 20.4037C18.3452 19.9928 18.1797 19.5897 17.8872 19.2994Z" fill="url(#paint_linear_1_2256_0)" fill-opacity="1.000000" fill-rule="nonzero"/>
		<path id="Vector" d="M33.6875 19.2994C33.3975 19.0087 32.9941 18.8416 32.583 18.8416C32.1709 18.8416 31.7676 19.0087 31.4771 19.2994C31.1865 19.5898 31.021 19.9928 31.021 20.4037C31.021 20.8147 31.187 21.2177 31.4771 21.5083C31.769 21.7989 32.1724 21.9659 32.583 21.9659C32.9941 21.9659 33.3955 21.7989 33.6875 21.5083C33.9785 21.2177 34.1455 20.8147 34.1455 20.4037C34.1455 19.9928 33.9785 19.5897 33.6875 19.2994Z" fill="url(#paint_linear_1_2259_0)" fill-opacity="1.000000" fill-rule="nonzero"/>
		<path id="Vector" d="M30.6646 28.5279C29.8306 28.3047 28.9746 28.8006 28.752 29.634C28.2603 31.4758 26.5869 32.762 24.6831 32.762C22.7793 32.762 21.106 31.4758 20.6138 29.634C20.3911 28.8004 19.5352 28.3045 18.7012 28.5279C17.8677 28.7507 17.3726 29.6068 17.5952 30.4404C18.4521 33.647 21.3662 35.8864 24.6831 35.8864C27.9995 35.8864 30.9141 33.647 31.7705 30.4404C31.9932 29.6067 31.498 28.7506 30.6646 28.5279Z" fill="#2B7AF1" fill-opacity="1.000000" fill-rule="nonzero"/>
		<path id="Vector" d="M49.519 44.9288C49.2285 44.6382 48.8271 44.4712 48.4146 44.4712C48.0039 44.4712 47.6006 44.6382 47.3101 44.9288C47.0195 45.2196 46.8525 45.6225 46.8525 46.0334C46.8525 46.4459 47.0195 46.8473 47.3101 47.1378C47.6006 47.4284 48.0039 47.5956 48.4146 47.5956C48.8271 47.5956 49.2285 47.4284 49.519 47.1378C49.8115 46.8473 49.9771 46.4443 49.9771 46.0334C49.9771 45.6225 49.8115 45.2195 49.519 44.9288Z" fill="url(#paint_linear_1_2265_0)" fill-opacity="1.000000" fill-rule="nonzero"/>
		<path id="Vector" d="M64.7925 44.9291C64.502 44.6385 64.1006 44.4714 63.688 44.4714C63.2773 44.4714 62.874 44.6385 62.5835 44.9291C62.293 45.2197 62.126 45.6227 62.126 46.0336C62.126 46.4461 62.293 46.8475 62.5835 47.138C62.874 47.4286 63.2773 47.5958 63.688 47.5958C64.1006 47.5957 64.502 47.4285 64.7925 47.138C65.083 46.8475 65.2505 46.4446 65.2505 46.0336C65.2505 45.6227 65.0835 45.2197 64.7925 44.9291Z" fill="url(#paint_linear_1_2268_0)" fill-opacity="1.000000" fill-rule="nonzero"/>
		<path id="Vector" d="M49.1494 55.7507C49.9834 58.873 52.8218 61.054 56.0513 61.054C59.2808 61.054 62.1191 58.8732 62.9536 55.7507C63.1763 54.9171 62.6812 54.061 61.8472 53.8382C61.0132 53.6147 60.1577 54.1108 59.9351 54.9443C59.4653 56.7019 57.8682 57.9294 56.0518 57.9294C54.2344 57.9294 52.6377 56.7018 52.168 54.9443C51.9814 54.2457 51.3501 53.7847 50.6597 53.7847C50.5264 53.7847 50.3906 53.8019 50.2559 53.8382C49.4219 54.061 48.9268 54.9171 49.1494 55.7507Z" fill="#2B7AF1" fill-opacity="1.000000" fill-rule="nonzero"/>
	</g>
</svg>
