<svg width="81.000000" height="80.000000" viewBox="0 0 81 80" fill="none" xmlns="http://www.w3.org/2000/svg" xmlns:xlink="http://www.w3.org/1999/xlink">
	<desc>
			Created with Pixso.
	</desc>
	<defs>
		<clipPath id="clip1_2528">
			<rect id="Безопасность" width="80.000000" height="80.000000" fill="white" fill-opacity="0"/>
		</clipPath>
		<clipPath id="clip1_2538">
			<rect id="Документы" width="80.000000" height="80.000000" fill="white" fill-opacity="0"/>
		</clipPath>
		<clipPath id="clip1_2548">
			<rect id="Время" width="80.000000" height="80.000000" fill="white" fill-opacity="0"/>
		</clipPath>
		<clipPath id="clip1_2560">
			<rect id="Деньги" width="80.000000" height="80.000000" transform="translate(1.000000 0.000000)" fill="white" fill-opacity="0"/>
		</clipPath>
		<linearGradient id="paint_linear_1_2543_0" x1="14.926752" y1="65.307617" x2="50.385654" y2="65.151367" gradientUnits="userSpaceOnUse">
			<stop stop-color="#FF7A00"/>
			<stop offset="1.000000" stop-color="#FFB039"/>
		</linearGradient>
		<linearGradient id="paint_linear_1_2544_0" x1="21.259764" y1="59.057617" x2="50.385548" y2="58.901367" gradientUnits="userSpaceOnUse">
			<stop stop-color="#FF7A00"/>
			<stop offset="1.000000" stop-color="#FFB039"/>
		</linearGradient>
		<linearGradient id="paint_linear_1_2545_0" x1="14.926758" y1="59.057858" x2="18.051760" y2="58.901608" gradientUnits="userSpaceOnUse">
			<stop stop-color="#FF7A00"/>
			<stop offset="1.000000" stop-color="#FFB039"/>
		</linearGradient>
		<linearGradient id="paint_linear_1_2546_0" x1="14.926754" y1="71.557678" x2="50.385815" y2="71.401428" gradientUnits="userSpaceOnUse">
			<stop stop-color="#FF7A00"/>
			<stop offset="1.000000" stop-color="#FFB039"/>
		</linearGradient>
		<linearGradient id="paint_linear_1_2547_0" x1="57.968750" y1="30.339111" x2="61.093750" y2="30.182861" gradientUnits="userSpaceOnUse">
			<stop stop-color="#FF7A00"/>
			<stop offset="1.000000" stop-color="#FFB039"/>
		</linearGradient>
		<linearGradient id="paint_linear_1_2563_0" x1="47.867676" y1="52.799492" x2="60.992657" y2="51.522671" gradientUnits="userSpaceOnUse">
			<stop stop-color="#FF7A00"/>
			<stop offset="1.000000" stop-color="#FFB039"/>
		</linearGradient>
		<linearGradient id="paint_linear_1_2569_0" x1="55.218750" y1="34.218945" x2="58.441589" y2="34.062687" gradientUnits="userSpaceOnUse">
			<stop stop-color="#FF7A00"/>
			<stop offset="1.000000" stop-color="#FFB039"/>
		</linearGradient>
		<linearGradient id="paint_linear_1_2575_0" x1="50.434082" y1="71.718666" x2="53.656593" y2="71.562401" gradientUnits="userSpaceOnUse">
			<stop stop-color="#FF7A00"/>
			<stop offset="1.000000" stop-color="#FFB039"/>
		</linearGradient>
	</defs>
	<rect id="Деньги" width="80.000000" height="80.000000" transform="translate(1.000000 0.000000)" fill="#FFFFFF" fill-opacity="0"/>
	<g clip-path="url(#clip1_2560)">
		<path id="Vector" d="M54.4302 51.3058C52.5347 51.3058 50.9927 49.9711 50.9927 48.3306C50.9927 46.6899 52.5347 45.3553 54.4302 45.3553C56.3257 45.3553 57.8677 46.6899 57.8677 48.3306C57.8677 49.1935 58.5674 49.8931 59.4302 49.8931C60.293 49.8931 60.9927 49.1935 60.9927 48.3306C60.9927 45.4673 58.8594 43.0598 55.9927 42.4064L55.9927 41.5938C55.9927 40.731 55.293 40.0312 54.4302 40.0312C53.5674 40.0312 52.8677 40.731 52.8677 41.5938L52.8677 42.4064C50.001 43.0598 47.8677 45.4673 47.8677 48.3306C47.8677 51.6942 50.8115 54.4308 54.4302 54.4308C56.3257 54.4308 57.8677 55.7655 57.8677 57.406C57.8677 59.0466 56.3257 60.3813 54.4302 60.3813C52.5347 60.3813 50.9927 59.0466 50.9927 57.406C50.9927 56.5432 50.293 55.8436 49.4302 55.8436C48.5674 55.8436 47.8677 56.5432 47.8677 57.406C47.8677 60.2693 50.001 62.6769 52.8677 63.3303L52.8677 64.0052C52.8677 64.868 53.5674 65.5677 54.4302 65.5677C55.293 65.5677 55.9927 64.868 55.9927 64.0052L55.9927 63.3303C58.8594 62.6769 60.9927 60.2693 60.9927 57.406C60.9927 54.0424 58.0488 51.3058 54.4302 51.3058Z" fill="url(#paint_linear_1_2563_0)" fill-opacity="1.000000" fill-rule="nonzero"/>
		<path id="Vector" d="M71.5439 42.0118C69.5029 38.8313 66.6274 36.2864 63.228 34.6522C62.4502 34.2782 61.5166 34.6057 61.1431 35.3835C60.769 36.1614 61.0962 37.0947 61.874 37.4686C67.7979 40.3162 71.625 46.4004 71.625 52.9688C71.625 55.7794 70.9321 58.5668 69.6221 61.0299C69.2163 61.7916 69.5054 62.7379 70.2671 63.1432C70.501 63.2676 70.7524 63.3267 71 63.3267C71.5591 63.3267 72.0996 63.0256 72.3804 62.4977C73.9307 59.5846 74.75 56.2894 74.75 52.9688C74.75 49.0688 73.6416 45.2799 71.5439 42.0118Z" fill="#2B7AF1" fill-opacity="1.000000" fill-rule="nonzero"/>
		<path id="Vector" d="M56.8862 32.6565L56.7812 32.6564C55.9185 32.6564 55.2188 33.356 55.2188 34.2189C55.2188 35.0818 55.9185 35.7814 56.7812 35.7814L56.8716 35.7815C56.874 35.7815 56.8765 35.7815 56.8794 35.7815C57.7388 35.7815 58.4375 35.0868 58.4414 34.2263C58.4453 33.3634 57.749 32.6606 56.8862 32.6565Z" fill="url(#paint_linear_1_2569_0)" fill-opacity="1.000000" fill-rule="nonzero"/>
		<path id="Vector" d="M47.001 68.469C41.0771 65.6213 37.25 59.5371 37.25 52.9689C37.25 50.1582 37.9429 47.3708 39.2534 44.9077C39.6587 44.146 39.3696 43.1998 38.6079 42.7944C37.8462 42.3892 36.8999 42.6781 36.4946 43.4399C34.9443 46.3533 34.125 49.6482 34.125 52.9689C34.125 56.8689 35.2334 60.6576 37.3311 63.9259C39.3721 67.1063 42.2476 69.6514 45.647 71.2855C45.8652 71.3905 46.0957 71.4401 46.3228 71.4401C46.9048 71.4401 47.4629 71.1136 47.7319 70.5543C48.106 69.7765 47.7788 68.8429 47.001 68.469Z" fill="#2B7AF1" fill-opacity="1.000000" fill-rule="nonzero"/>
		<path id="Vector" d="M52.0942 70.1564L52.0034 70.156C51.1367 70.1544 50.438 70.848 50.4341 71.7112C50.4302 72.5741 51.1265 73.277 51.9893 73.281L52.0942 73.2814C52.957 73.2814 53.6567 72.5817 53.6567 71.7189C53.6567 70.856 52.957 70.1564 52.0942 70.1564Z" fill="url(#paint_linear_1_2575_0)" fill-opacity="1.000000" fill-rule="nonzero"/>
		<path id="Vector" d="M61.5327 27.37C61.3423 26.9169 61.1094 26.4897 60.8384 26.0938L64.9062 26.0938C68.8691 26.0938 72.0938 22.8694 72.0938 18.9062C72.0938 14.9431 68.8691 11.7188 64.9062 11.7188L52.3936 11.7188C53.189 10.5621 53.6562 9.16296 53.6562 7.65625C53.6562 3.69312 50.4316 0.46875 46.4688 0.46875L8.1875 0.46875C4.22461 0.46875 1 3.69312 1 7.65625C1 11.6194 4.22461 14.8438 8.1875 14.8438L20.7002 14.8438C19.9043 16.0002 19.4375 17.3995 19.4375 18.9062C19.4375 20.413 19.9043 21.8121 20.7002 22.9688L16.625 22.9688C12.6616 22.9688 9.4375 26.1931 9.4375 30.1562C9.4375 32.4323 10.502 34.4634 12.1587 35.7811C10.502 37.099 9.4375 39.1301 9.4375 41.4061C9.4375 43.6823 10.502 45.7134 12.1587 47.0311C10.502 48.349 9.4375 50.3801 9.4375 52.6561C9.4375 54.9323 10.502 56.9634 12.1587 58.2811C10.502 59.599 9.4375 61.63 9.4375 63.9061C9.4375 67.8693 12.6616 71.0936 16.625 71.0936L35.0391 71.0936C39.8901 76.2822 46.791 79.5312 54.4375 79.5312C69.084 79.5312 81 67.6154 81 52.9688C81 40.7787 72.7451 30.4817 61.5327 27.37ZM64.9062 14.8438C67.1465 14.8438 68.9688 16.6663 68.9688 18.9062C68.9688 21.1462 67.1465 22.9688 64.9062 22.9688L54.9062 22.9688L26.625 22.9688C24.3848 22.9688 22.5625 21.1462 22.5625 18.9062C22.5625 16.6663 24.3848 14.8438 26.625 14.8438L64.9062 14.8438ZM8.1875 11.7188C5.94727 11.7188 4.125 9.89624 4.125 7.65625C4.125 5.41626 5.94727 3.59375 8.1875 3.59375L46.4688 3.59375C48.709 3.59375 50.5312 5.41626 50.5312 7.65625C50.5312 9.89624 48.709 11.7188 46.4688 11.7188L8.1875 11.7188ZM16.625 26.0938L54.9062 26.0938C55.5356 26.0938 56.1382 26.24 56.6787 26.5018C55.9399 26.4398 55.1924 26.4064 54.4375 26.4064C47.1025 26.4064 40.4526 29.3953 35.6406 34.2188L16.625 34.2188C14.3848 34.2188 12.5625 32.3962 12.5625 30.1562C12.5625 27.9161 14.3848 26.0938 16.625 26.0938ZM16.625 37.3436L32.9712 37.3436C31.1973 39.7738 29.8257 42.5148 28.9551 45.4686L16.625 45.4686C14.3848 45.4686 12.5625 43.6464 12.5625 41.4061C12.5625 39.1661 14.3848 37.3436 16.625 37.3436ZM16.625 48.5936L28.2373 48.5936C28.0005 50.0176 27.875 51.4786 27.875 52.9688C27.875 54.2416 27.9673 55.4932 28.1411 56.7186L16.625 56.7186C14.3848 56.7186 12.5625 54.8964 12.5625 52.6561C12.5625 50.416 14.3848 48.5936 16.625 48.5936ZM16.625 67.9686C14.3848 67.9686 12.5625 66.1462 12.5625 63.9061C12.5625 61.666 14.3848 59.8436 16.625 59.8436L28.7788 59.8436C29.5674 62.7832 30.8481 65.5227 32.5278 67.9686L16.625 67.9686ZM54.4375 76.4062C41.5142 76.4062 31 65.8922 31 52.9688C31 40.0454 41.5142 29.5314 54.4375 29.5314C67.3608 29.5314 77.875 40.0454 77.875 52.9688C77.875 65.8922 67.3608 76.4062 54.4375 76.4062Z" fill="#2B7AF1" fill-opacity="1.000000" fill-rule="nonzero"/>
	</g>
</svg>
