<svg width="81.000000" height="80.000000" viewBox="0 0 81 80" fill="none" xmlns="http://www.w3.org/2000/svg" xmlns:xlink="http://www.w3.org/1999/xlink">
	<desc>
			Created with Pixso.
	</desc>
	<defs>
		<clipPath id="clip1_2583">
			<rect id="Безопасность" width="80.000000" height="80.000000" fill="white" fill-opacity="0"/>
		</clipPath>
		<clipPath id="clip1_2593">
			<rect id="Документы" width="80.000000" height="80.000000" fill="white" fill-opacity="0"/>
		</clipPath>
		<clipPath id="clip1_2603">
			<rect id="Время" width="80.000000" height="80.000000" fill="white" fill-opacity="0"/>
		</clipPath>
		<clipPath id="clip1_2615">
			<rect id="Деньги" width="80.000000" height="80.000000" transform="translate(1.000000 0.000000)" fill="white" fill-opacity="0"/>
		</clipPath>
		<linearGradient id="paint_linear_1_2598_0" x1="14.926754" y1="65.307617" x2="50.385658" y2="65.151367" gradientUnits="userSpaceOnUse">
			<stop stop-color="#FF7A00"/>
			<stop offset="1.000000" stop-color="#FFB039"/>
		</linearGradient>
		<linearGradient id="paint_linear_1_2599_0" x1="21.259762" y1="59.057617" x2="50.385544" y2="58.901367" gradientUnits="userSpaceOnUse">
			<stop stop-color="#FF7A00"/>
			<stop offset="1.000000" stop-color="#FFB039"/>
		</linearGradient>
		<linearGradient id="paint_linear_1_2600_0" x1="14.926758" y1="59.057861" x2="18.051760" y2="58.901611" gradientUnits="userSpaceOnUse">
			<stop stop-color="#FF7A00"/>
			<stop offset="1.000000" stop-color="#FFB039"/>
		</linearGradient>
		<linearGradient id="paint_linear_1_2601_0" x1="14.926758" y1="71.557617" x2="50.385818" y2="71.401367" gradientUnits="userSpaceOnUse">
			<stop stop-color="#FF7A00"/>
			<stop offset="1.000000" stop-color="#FFB039"/>
		</linearGradient>
		<linearGradient id="paint_linear_1_2602_0" x1="57.968750" y1="30.339111" x2="61.093750" y2="30.182861" gradientUnits="userSpaceOnUse">
			<stop stop-color="#FF7A00"/>
			<stop offset="1.000000" stop-color="#FFB039"/>
		</linearGradient>
	</defs>
	<rect id="Документы" width="80.000000" height="80.000000" fill="#FFFFFF" fill-opacity="0"/>
	<g clip-path="url(#clip1_2593)">
		<path id="XMLID 1729" d="M71.0938 0L23.5938 0C21.0093 0 18.9062 2.10278 18.9062 4.6875L18.9062 10.135C18.731 10.2115 18.5669 10.3171 18.4263 10.4576L4.67627 24.2076C4.37793 24.5062 4.22314 24.9055 4.22266 25.3115C4.22119 25.3119 4.22021 25.3121 4.21875 25.3126L4.21875 75.3126C4.21875 77.8973 6.32178 80.0001 8.90625 80.0001L56.4062 80.0001C58.9907 80.0001 61.0938 77.8973 61.0938 75.3126L61.0938 70.0001L71.0938 70.0001C73.6782 70.0001 75.7812 67.8973 75.7812 65.3126L75.7812 4.6875C75.7812 2.10278 73.6782 0 71.0938 0ZM47.2856 10L43.6753 10C42.8877 8.51465 41.3262 7.5 39.5312 7.5C36.9468 7.5 34.8438 9.60278 34.8438 12.1875L34.8438 21.3992C34.8438 22.2621 35.5435 22.9617 36.4062 22.9617C37.269 22.9617 37.9688 22.2621 37.9688 21.3992L37.9688 12.1875C37.9688 11.3259 38.6699 10.625 39.5312 10.625C40.3926 10.625 41.0938 11.3259 41.0938 12.1875L41.0938 22.6492C41.0938 25.2339 38.9907 27.3367 36.4062 27.3367C33.8218 27.3367 31.7188 25.2339 31.7188 22.6492L31.7188 10.9375C31.7188 6.62964 35.2236 3.125 39.5312 3.125C43.5215 3.125 46.8208 6.13281 47.2856 10ZM23.5938 3.125L31.8872 3.125C30.0669 4.90662 28.8657 7.31604 28.6367 10L22.0312 10L22.0312 4.6875C22.0312 3.82593 22.7324 3.125 23.5938 3.125ZM17.9688 15.3348L17.9688 21.0156C17.9688 22.5233 16.7422 23.75 15.2344 23.75L9.55371 23.75L17.9688 15.3348ZM72.6562 65.3125C72.6562 66.1741 71.9551 66.875 71.0938 66.875L61.0938 66.875L61.0938 36.5889C61.0938 35.7261 60.394 35.0264 59.5312 35.0264C58.6685 35.0264 57.9688 35.7261 57.9688 36.5889L57.9688 75.3125C57.9688 76.1741 57.2676 76.875 56.4062 76.875L8.90625 76.875C8.04492 76.875 7.34375 76.1741 7.34375 75.3125L7.34375 26.875L15.2344 26.875C18.4653 26.875 21.0938 24.2466 21.0938 21.0156L21.0938 13.125L28.5938 13.125L28.5938 22.6492C28.5938 26.957 32.0986 30.4617 36.4062 30.4617C40.7139 30.4617 44.2188 26.957 44.2188 22.6492L44.2188 13.125L56.4062 13.125C57.2676 13.125 57.9688 13.8259 57.9688 14.6875L57.9688 24.0889C57.9688 24.9517 58.6685 25.6514 59.5312 25.6514C60.394 25.6514 61.0938 24.9517 61.0938 24.0889L61.0938 14.6875C61.0938 12.1028 58.9907 10 56.4062 10L50.4258 10C50.1968 7.31604 48.9956 4.90662 47.1753 3.125L71.0938 3.125C71.9551 3.125 72.6562 3.82593 72.6562 4.6875L72.6562 65.3125Z" fill="#2B7AF1" fill-opacity="1.000000" fill-rule="nonzero"/>
		<path id="XMLID 1872" d="M16.5723 53.0475L48.7397 53.0475C49.6025 53.0475 50.3022 52.3479 50.3022 51.485C50.3022 50.6222 49.6025 49.9225 48.7397 49.9225L46.8848 49.9225L46.8848 43.8191C46.8848 42.9563 46.1851 42.2566 45.3223 42.2566L39.3848 42.2566L39.3848 38.6471C39.3848 37.7843 38.6851 37.0846 37.8223 37.0846L31.8848 37.0846L31.8848 34.4949C31.8848 33.6321 31.1851 32.9324 30.3223 32.9324L22.8223 32.9324C21.9595 32.9324 21.2598 33.6321 21.2598 34.4949L21.2598 49.9224L18.1348 49.9224L18.1348 34.4949C18.1348 33.6321 17.4351 32.9324 16.5723 32.9324C15.7095 32.9324 15.0098 33.6321 15.0098 34.4949L15.0098 51.4849C15.0098 52.3479 15.7095 53.0475 16.5723 53.0475ZM43.7598 45.3816L43.7598 49.9225L39.3848 49.9225L39.3848 45.3816L43.7598 45.3816ZM36.2598 40.2097L36.2598 43.8192L36.2598 49.9227L31.8848 49.9227L31.8848 40.2098L36.2598 40.2098L36.2598 40.2097ZM24.3848 36.0575L28.7598 36.0575L28.7598 38.6472L28.7598 49.9225L24.3848 49.9225L24.3848 36.0575Z" fill="#2B7AF1" fill-opacity="1.000000" fill-rule="nonzero"/>
		<path id="XMLID 1875" d="M48.8232 63.7451L16.4893 63.7451C15.6265 63.7451 14.9268 64.4448 14.9268 65.3076C14.9268 66.1704 15.6265 66.8701 16.4893 66.8701L48.8232 66.8701C49.686 66.8701 50.3857 66.1704 50.3857 65.3076C50.3857 64.4448 49.686 63.7451 48.8232 63.7451Z" fill="url(#paint_linear_1_2598_0)" fill-opacity="1.000000" fill-rule="nonzero"/>
		<path id="XMLID 1876" d="M48.8232 57.4951L22.8223 57.4951C21.9595 57.4951 21.2598 58.1948 21.2598 59.0576C21.2598 59.9204 21.9595 60.6201 22.8223 60.6201L48.8232 60.6201C49.686 60.6201 50.3857 59.9204 50.3857 59.0576C50.3857 58.1948 49.686 57.4951 48.8232 57.4951Z" fill="url(#paint_linear_1_2599_0)" fill-opacity="1.000000" fill-rule="nonzero"/>
		<path id="XMLID 1877" d="M16.4893 60.6204C16.9004 60.6204 17.3032 60.4531 17.5938 60.1626C17.8843 59.8719 18.0518 59.4688 18.0518 59.0579C18.0518 58.647 17.8848 58.2438 17.5938 57.9531C17.3032 57.6627 16.9004 57.4954 16.4893 57.4954C16.0781 57.4954 15.6748 57.6626 15.3848 57.9531C15.0938 58.2438 14.9268 58.647 14.9268 59.0579C14.9268 59.4688 15.0938 59.8719 15.3848 60.1626C15.6748 60.453 16.0781 60.6204 16.4893 60.6204Z" fill="url(#paint_linear_1_2600_0)" fill-opacity="1.000000" fill-rule="nonzero"/>
		<path id="XMLID 1878" d="M48.8232 69.9951L16.4893 69.9951C15.6265 69.9951 14.9268 70.6948 14.9268 71.5576C14.9268 72.4204 15.6265 73.1201 16.4893 73.1201L48.8232 73.1201C49.686 73.1201 50.3857 72.4204 50.3857 71.5576C50.3857 70.6948 49.686 69.9951 48.8232 69.9951Z" fill="url(#paint_linear_1_2601_0)" fill-opacity="1.000000" fill-rule="nonzero"/>
		<path id="XMLID 1879" d="M59.5312 28.7766C59.1201 28.7766 58.7173 28.9438 58.4268 29.2344C58.1357 29.525 57.9688 29.9282 57.9688 30.3391C57.9688 30.75 58.1357 31.1532 58.4268 31.4438C58.7173 31.7343 59.1201 31.9016 59.5312 31.9016C59.9424 31.9016 60.3452 31.7344 60.6357 31.4438C60.9263 31.1532 61.0938 30.75 61.0938 30.3391C61.0938 29.9282 60.9268 29.525 60.6357 29.2344C60.3452 28.9438 59.9424 28.7766 59.5312 28.7766Z" fill="url(#paint_linear_1_2602_0)" fill-opacity="1.000000" fill-rule="nonzero"/>
	</g>
</svg>
