<svg width="81.000000" height="80.000000" viewBox="0 0 81 80" fill="none" xmlns="http://www.w3.org/2000/svg" xmlns:xlink="http://www.w3.org/1999/xlink">
	<desc>
			Created with Pixso.
	</desc>
	<defs>
		<clipPath id="clip1_2416">
			<rect id="Безопасность" width="80.000000" height="80.000000" fill="white" fill-opacity="0"/>
		</clipPath>
		<clipPath id="clip1_2426">
			<rect id="Документы" width="80.000000" height="80.000000" fill="white" fill-opacity="0"/>
		</clipPath>
		<clipPath id="clip1_2436">
			<rect id="Время" width="80.000000" height="80.000000" fill="white" fill-opacity="0"/>
		</clipPath>
		<clipPath id="clip1_2448">
			<rect id="Деньги" width="80.000000" height="80.000000" transform="translate(1.000000 0.000000)" fill="white" fill-opacity="0"/>
		</clipPath>
		<linearGradient id="paint_linear_1_2422_0" x1="26.594238" y1="15.157535" x2="29.991062" y2="14.988730" gradientUnits="userSpaceOnUse">
			<stop stop-color="#FF7A00"/>
			<stop offset="1.000000" stop-color="#FFB039"/>
		</linearGradient>
		<linearGradient id="paint_linear_1_2424_0" x1="43.212887" y1="69.208153" x2="46.682976" y2="69.036804" gradientUnits="userSpaceOnUse">
			<stop stop-color="#FF7A00"/>
			<stop offset="1.000000" stop-color="#FFB039"/>
		</linearGradient>
		<linearGradient id="paint_linear_1_2425_0" x1="19.190916" y1="39.999550" x2="60.810291" y2="38.415207" gradientUnits="userSpaceOnUse">
			<stop stop-color="#FF7A00"/>
			<stop offset="1.000000" stop-color="#FFB039"/>
		</linearGradient>
		<linearGradient id="paint_linear_1_2431_0" x1="14.926752" y1="65.307617" x2="50.385654" y2="65.151367" gradientUnits="userSpaceOnUse">
			<stop stop-color="#FF7A00"/>
			<stop offset="1.000000" stop-color="#FFB039"/>
		</linearGradient>
		<linearGradient id="paint_linear_1_2432_0" x1="21.259764" y1="59.057617" x2="50.385548" y2="58.901367" gradientUnits="userSpaceOnUse">
			<stop stop-color="#FF7A00"/>
			<stop offset="1.000000" stop-color="#FFB039"/>
		</linearGradient>
		<linearGradient id="paint_linear_1_2433_0" x1="14.926758" y1="59.057858" x2="18.051760" y2="58.901608" gradientUnits="userSpaceOnUse">
			<stop stop-color="#FF7A00"/>
			<stop offset="1.000000" stop-color="#FFB039"/>
		</linearGradient>
		<linearGradient id="paint_linear_1_2434_0" x1="14.926754" y1="71.557678" x2="50.385815" y2="71.401428" gradientUnits="userSpaceOnUse">
			<stop stop-color="#FF7A00"/>
			<stop offset="1.000000" stop-color="#FFB039"/>
		</linearGradient>
		<linearGradient id="paint_linear_1_2435_0" x1="57.968750" y1="30.339111" x2="61.093750" y2="30.182861" gradientUnits="userSpaceOnUse">
			<stop stop-color="#FF7A00"/>
			<stop offset="1.000000" stop-color="#FFB039"/>
		</linearGradient>
	</defs>
	<rect id="Безопасность" width="80.000000" height="80.000000" fill="#FFFFFF" fill-opacity="0"/>
	<g clip-path="url(#clip1_2416)">
		<path id="Vector" d="M72.874 13.8142C61.8672 10.7983 50.7954 6.10217 40.856 0.233765C40.3281 -0.0778809 39.6729 -0.0778809 39.145 0.233765C28.9189 6.27075 18.4453 10.7129 7.12598 13.8142C6.39453 14.0144 5.8877 14.6791 5.8877 15.4374L5.8877 32.632C5.8877 50.3387 14.0562 62.0593 20.9092 68.7736C28.2866 76.0024 36.8804 80 40.0005 80C43.1201 80 51.7139 76.0024 59.0913 68.7736C65.9443 62.0594 74.1123 50.3389 74.1123 32.632L74.1123 15.4373C74.1123 14.6791 73.6055 14.0144 72.874 13.8142ZM70.7466 32.6318C70.7466 49.1698 63.1279 60.1064 56.7358 66.3693C49.481 73.4779 41.7241 76.6342 40.0005 76.6342C38.2764 76.6342 30.5195 73.4779 23.2642 66.3693C16.8726 60.1063 9.25342 49.1698 9.25342 32.6318L9.25342 16.7147C20.0781 13.6412 30.1592 9.35205 40.001 3.63281C49.5967 9.20032 60.1807 13.7029 70.7466 16.7141L70.7466 32.6318Z" fill="#2B7AF1" fill-opacity="1.000000" fill-rule="nonzero"/>
		<path id="Vector" d="M25.0835 16.5264C24.7432 15.6615 23.7661 15.2367 22.9009 15.5775C19.895 16.762 16.8091 17.8523 13.73 18.8182C13.0283 19.0386 12.5508 19.6886 12.5508 20.4238L12.5508 26.9225C12.5508 27.8518 13.3042 28.6052 14.2334 28.6052C15.1626 28.6052 15.9165 27.8518 15.9165 26.9225L15.9165 21.6537C18.6787 20.76 21.438 19.7714 24.1348 18.7087C24.9995 18.3683 25.4243 17.3912 25.0835 16.5264Z" fill="#2B7AF1" fill-opacity="1.000000" fill-rule="nonzero"/>
		<path id="Vector" d="M28.2808 16.8456C28.5068 16.8456 28.7358 16.8002 28.9556 16.7042L28.9868 16.6908C29.8379 16.3176 30.2217 15.3265 29.8481 14.4755C29.4751 13.624 28.478 13.2389 27.6279 13.6117L27.6006 13.6234C26.7485 13.9955 26.3643 14.9857 26.7358 15.8373C27.0122 16.4695 27.6318 16.8456 28.2808 16.8456Z" fill="url(#paint_linear_1_2422_0)" fill-opacity="1.000000" fill-rule="nonzero"/>
		<path id="Vector" d="M60.0503 54.2628C59.2729 53.7545 58.23 53.9731 57.7212 54.7511C56.3345 56.8737 54.7075 58.9061 52.8848 60.7916C51.3862 62.3419 49.7622 63.7869 48.0581 65.0861C47.3188 65.6495 47.1768 66.7054 47.7402 67.4447C48.0713 67.8789 48.5728 68.1073 49.0796 68.1073C49.4355 68.1073 49.7939 67.995 50.0986 67.7625C51.937 66.3608 53.6885 64.8025 55.3047 63.131C57.2749 61.0929 59.0356 58.8928 60.5386 56.592C61.0474 55.814 60.8281 54.7711 60.0503 54.2628Z" fill="#2B7AF1" fill-opacity="1.000000" fill-rule="nonzero"/>
		<path id="Vector" d="M44.1494 67.7255L44.0527 67.7823C43.2485 68.248 42.9741 69.2775 43.4395 70.0817C43.7515 70.6207 44.3164 70.9216 44.8975 70.9216C45.1836 70.9216 45.4736 70.8488 45.7388 70.6948L45.8501 70.6293C46.6523 70.1597 46.9219 69.1289 46.4521 68.3268C45.9819 67.5251 44.9512 67.2562 44.1494 67.7255Z" fill="url(#paint_linear_1_2424_0)" fill-opacity="1.000000" fill-rule="nonzero"/>
		<path id="Vector" d="M28.5298 36.5653C27.4961 35.532 26.1221 34.9631 24.6606 34.9631C23.1992 34.9631 21.8247 35.5321 20.791 36.5653C18.6577 38.6991 18.6577 42.171 20.791 44.3046L30.7275 54.2411C31.7612 55.2742 33.1353 55.8431 34.5972 55.8431C36.0586 55.8431 37.4331 55.2742 38.4668 54.2408L59.2104 33.4968C61.3438 31.3625 61.3438 27.8911 59.21 25.7582C58.1768 24.7247 56.8027 24.156 55.3408 24.156C53.8789 24.156 52.5049 24.7249 51.4712 25.7582L34.5972 42.6323L28.5298 36.5653ZM53.8511 28.1382C54.249 27.7405 54.7778 27.5216 55.3408 27.5216C55.9038 27.5216 56.4326 27.7405 56.8306 28.1382C57.6519 28.9592 57.6519 30.2959 56.8306 31.1172L36.0869 51.861C35.689 52.2587 35.1597 52.4775 34.5972 52.4775C34.0342 52.4775 33.5049 52.2587 33.1074 51.861L23.1709 41.9247C22.3491 41.1033 22.3491 39.7667 23.1704 38.9457C23.5684 38.548 24.0977 38.3287 24.6602 38.3287C25.2231 38.3287 25.7524 38.5477 26.1499 38.9453L33.4067 46.2025C33.7227 46.5179 34.1504 46.6953 34.5972 46.6953C35.0435 46.6953 35.4712 46.5182 35.7866 46.2025L53.8511 28.1382Z" fill="url(#paint_linear_1_2425_0)" fill-opacity="1.000000" fill-rule="nonzero"/>
	</g>
</svg>
