<svg width="88.000000" height="88.000000" viewBox="0 0 88 88" fill="none" xmlns="http://www.w3.org/2000/svg" xmlns:xlink="http://www.w3.org/1999/xlink">
	<desc>
			Created with Pixso.
	</desc>
	<defs>
		<clipPath id="clip1_2155">
			<rect id="deal 1" width="88.000000" height="88.000000" fill="white" fill-opacity="0"/>
		</clipPath>
		<linearGradient id="paint_linear_1_2156_0" x1="4.687011" y1="67.066162" x2="7.267150" y2="66.937256" gradientUnits="userSpaceOnUse">
			<stop stop-color="#FF7A00"/>
			<stop offset="1.000000" stop-color="#FFB039"/>
		</linearGradient>
		<linearGradient id="paint_linear_1_2158_0" x1="80.732910" y1="67.066162" x2="83.311035" y2="66.937256" gradientUnits="userSpaceOnUse">
			<stop stop-color="#FF7A00"/>
			<stop offset="1.000000" stop-color="#FFB039"/>
		</linearGradient>
		<linearGradient id="paint_linear_1_2160_0" x1="36.977539" y1="23.983549" x2="39.555664" y2="23.785122" gradientUnits="userSpaceOnUse">
			<stop stop-color="#FF7A00"/>
			<stop offset="1.000000" stop-color="#FFB039"/>
		</linearGradient>
		<linearGradient id="paint_linear_1_2161_0" x1="48.444336" y1="23.983549" x2="51.022461" y2="23.785122" gradientUnits="userSpaceOnUse">
			<stop stop-color="#FF7A00"/>
			<stop offset="1.000000" stop-color="#FFB039"/>
		</linearGradient>
		<linearGradient id="paint_linear_1_2162_0" x1="38.422852" y1="31.113949" x2="49.577267" y2="30.793495" gradientUnits="userSpaceOnUse">
			<stop stop-color="#FF7A00"/>
			<stop offset="1.000000" stop-color="#FFB039"/>
		</linearGradient>
		<linearGradient id="paint_linear_1_2164_0" x1="11.428223" y1="16.594992" x2="27.163847" y2="15.835691" gradientUnits="userSpaceOnUse">
			<stop stop-color="#FF7A00"/>
			<stop offset="1.000000" stop-color="#FFB039"/>
		</linearGradient>
	</defs>
	<rect id="deal 1" width="88.000000" height="88.000000" fill="#FFFFFF" fill-opacity="0"/>
	<g clip-path="url(#clip1_2155)">
		<path id="Vector" d="M5.97803 68.3552C6.31641 68.3552 6.64795 68.2176 6.88867 67.9772C7.12939 67.7362 7.26709 67.4045 7.26709 67.0662C7.26709 66.7258 7.12939 66.3941 6.88867 66.1531C6.64795 65.9147 6.31641 65.7771 5.97803 65.7771C5.6377 65.7771 5.30615 65.9147 5.06494 66.1531C4.82617 66.3941 4.68701 66.7258 4.68701 67.0662C4.68701 67.4045 4.82617 67.7362 5.06494 67.9772C5.30615 68.2176 5.6377 68.3552 5.97803 68.3552Z" fill="url(#paint_linear_1_2156_0)" fill-opacity="1.000000" fill-rule="nonzero"/>
		<path id="Vector" d="M85.8516 35.8366L78.1943 35.8366C77.0103 35.8366 76.0459 36.8 76.0459 37.985L76.0459 38.5974L72.3325 38.5974C71.1475 38.5974 70.1841 39.5608 70.1841 40.7458L70.1841 43.4065L49.98 43.4065C48.8633 43.4065 47.814 43.8429 47.0244 44.6345L46.4785 45.1816L46.3418 45.0447C45.4102 44.1101 43.7583 43.4038 42.4966 43.4018L17.8154 43.4018L17.8154 40.7451C17.8154 39.5608 16.8516 38.5967 15.667 38.5967L11.9541 38.5967L11.9541 37.9844C11.9541 36.8 10.9897 35.8359 9.80566 35.8359L2.14844 35.8359C0.963379 35.8359 0 36.8 0 37.9844L0 71.0918C0 72.2761 0.963379 73.2402 2.14844 73.2402L9.80566 73.2402C10.9897 73.2402 11.9541 72.2768 11.9541 71.0918L11.9541 70.4795L15.6675 70.4795C16.8516 70.4795 17.8159 69.5154 17.8159 68.3311L17.8159 67.2904L19.3652 68.3989C19.2646 69.6617 19.6831 70.9454 20.6289 71.8948C21.4551 72.7226 22.564 73.1791 23.7529 73.1791C23.7837 73.1791 23.8149 73.1771 23.8457 73.1765C23.8208 74.3507 24.2446 75.5216 25.124 76.4031C25.9492 77.2316 27.0581 77.6875 28.2471 77.6875C28.2783 77.6875 28.3091 77.6855 28.3408 77.6855C28.3149 78.8591 28.7393 80.0306 29.6177 80.9122C30.4434 81.74 31.5527 82.1959 32.7417 82.1959C32.7725 82.1959 32.8032 82.1945 32.834 82.1938C32.8096 83.3681 33.2334 84.539 34.1123 85.4205C34.9375 86.2484 36.0469 86.7049 37.2358 86.7049C38.4717 86.7049 39.6382 86.2175 40.519 85.3339L40.8232 85.0284C41.5386 85.4487 42.3564 85.6736 43.2104 85.6736C44.4756 85.6736 45.6611 85.1822 46.5498 84.2906L46.9404 83.8992C47.5435 83.2936 47.9478 82.5638 48.1553 81.7917C48.8306 82.1536 49.5908 82.3456 50.3809 82.3456C51.645 82.3456 52.8315 81.8541 53.7202 80.9625L54.1113 80.5704C54.689 79.991 55.0845 79.2968 55.2993 78.5603C56.0459 79.0343 56.9136 79.2888 57.8223 79.2888C59.0869 79.2888 60.2729 78.798 61.1621 77.9057L61.5522 77.5143C62.2095 76.855 62.6304 76.0486 62.8174 75.1993C63.3662 75.4175 63.9561 75.5323 64.5654 75.5323C65.8301 75.5323 67.0156 75.0409 67.9053 74.1493L68.2954 73.7579C69.9106 72.1378 70.1069 69.6248 68.8838 67.7879L70.1841 67.0541L70.1841 68.3311C70.1841 69.5161 71.1475 70.4795 72.3325 70.4795L76.0459 70.4795L76.0459 71.0925C76.0459 72.2768 77.0103 73.2409 78.1943 73.2409L85.8516 73.2409C87.0366 73.2409 88 72.2768 88 71.0925L88 37.985C88 36.8 87.0366 35.8366 85.8516 35.8366ZM9.37598 70.6621L2.57812 70.6621L2.57812 38.4147L9.37598 38.4147L9.37598 70.6621ZM23.7529 70.601C23.2539 70.601 22.7935 70.4137 22.4551 70.0746C21.7158 69.3334 21.7549 68.0887 22.542 67.2991L23.1123 66.7264C23.5068 66.3317 24.0244 66.1135 24.5703 66.1135C25.0688 66.1135 25.5293 66.3008 25.8677 66.6398C26.6069 67.381 26.5684 68.6258 25.7812 69.4147L25.21 69.988C24.8164 70.3835 24.2988 70.601 23.7529 70.601ZM28.2471 75.1094C27.7485 75.1094 27.2881 74.9227 26.9492 74.583C26.2104 73.8425 26.249 72.597 27.0361 71.8082L27.6074 71.2348C28.001 70.84 28.519 70.6225 29.0649 70.6225C29.564 70.6225 30.0244 70.8091 30.3623 71.1475C31.1006 71.8894 31.0625 73.1342 30.2754 73.9237L29.7041 74.4964C29.3105 74.8918 28.793 75.1094 28.2471 75.1094ZM32.7417 79.6177C32.2427 79.6177 31.7812 79.4311 31.4438 79.092C30.7051 78.3508 30.7437 77.1061 31.5298 76.3172C31.5298 76.3165 31.5303 76.3165 31.5303 76.3165L32.1016 75.7432C32.1016 75.7432 32.1016 75.7432 32.1025 75.7425C32.4956 75.3477 33.0137 75.1302 33.5586 75.1302C34.0576 75.1302 34.5186 75.3175 34.8564 75.6566C35.5957 76.3978 35.5566 77.6425 34.7695 78.4321L34.1982 79.0048C33.8052 79.4002 33.2871 79.6177 32.7417 79.6177ZM38.6929 83.5138C38.2993 83.9086 37.7817 84.1268 37.2358 84.1268C36.7368 84.1268 36.2764 83.9401 35.938 83.6004C35.1992 82.8592 35.2383 81.6144 36.0244 80.8256L36.5957 80.2522C36.9902 79.8568 37.5078 79.6392 38.0537 79.6392C38.5522 79.6392 39.0127 79.8259 39.3516 80.1656C40.0898 80.9068 40.0508 82.1516 39.2646 82.9404L38.6929 83.5138ZM66.4697 71.9371L66.0791 72.3292C65.6777 72.732 65.1401 72.9542 64.5654 72.9542C63.9912 72.9542 63.4536 72.732 63.0518 72.3292L52.9785 62.2208C52.4756 61.7166 51.6592 61.7152 51.1548 62.2181C50.6509 62.7203 50.6494 63.5367 51.1523 64.0409L59.7266 72.6447C60.5645 73.486 60.5645 74.8536 59.7266 75.6942L59.3359 76.0856C58.9346 76.4891 58.3965 76.7106 57.8223 76.7106C57.248 76.7106 56.71 76.4891 56.3086 76.0856L46.4004 66.1464C45.8979 65.6422 45.0815 65.6408 44.5771 66.1437C44.0732 66.6459 44.0718 67.4623 44.5747 67.9665L52.2422 75.6586L52.2852 75.7015C53.123 76.5421 53.123 77.9097 52.2852 78.7503L51.895 79.1417C51.4927 79.5452 50.9551 79.7668 50.3809 79.7668C49.8062 79.7668 49.2686 79.5452 48.8667 79.1417L38.0669 68.3076C37.564 67.8033 36.7485 67.802 36.2437 68.3042C35.7393 68.8071 35.7388 69.6228 36.2407 70.127L45.1143 79.0296C45.9521 79.8702 45.9521 81.2378 45.1143 82.0784L44.7246 82.4698C44.3223 82.8733 43.7847 83.0948 43.2104 83.0948C42.8667 83.0948 42.5371 83.0143 42.2412 82.8639C42.7324 81.3056 42.3813 79.5533 41.1768 78.3448C40.3516 77.517 39.2417 77.0611 38.0537 77.0611C38.022 77.0611 37.9912 77.0624 37.96 77.0631C37.9858 75.8889 37.5615 74.718 36.6826 73.8364C35.8569 73.0079 34.7476 72.5521 33.5586 72.5521C33.5278 72.5521 33.4971 72.5541 33.4658 72.5541C33.4907 71.3805 33.0674 70.2089 32.1885 69.3274C31.3633 68.4996 30.2534 68.0437 29.0649 68.0437C29.0332 68.0437 29.0024 68.045 28.9717 68.0457C28.9971 66.8715 28.5728 65.7006 27.6938 64.819C26.8682 63.9912 25.7593 63.5347 24.5703 63.5347C23.334 63.5347 22.1685 64.0214 21.2871 64.9063L20.7158 65.479C20.5762 65.6187 20.4482 65.7664 20.3301 65.9188L17.8159 64.1201L17.8159 61.0552C17.8159 60.3436 17.2383 59.7662 16.5269 59.7662C15.8145 59.7662 15.2378 60.3436 15.2378 61.0552L15.2378 67.9014L11.9541 67.9014L11.9541 41.1755L15.2378 41.1755L15.2378 54.8677C15.2378 55.5801 15.8145 56.1568 16.5269 56.1568C17.2383 56.1568 17.8159 55.5801 17.8159 54.8677L17.8159 45.9806L42.4956 45.9806C43.0708 45.9813 44.0718 46.419 44.5161 46.8648L44.6587 47.0078L35.5137 56.1816C34.5542 57.1444 34.0117 58.4187 33.9854 59.7702C33.96 61.1378 34.4678 62.4141 35.4141 63.3641C36.3369 64.2886 37.5767 64.7982 38.9053 64.7982C40.2905 64.7982 41.5972 64.2524 42.584 63.2614L45.7119 60.124C46.9092 60.8129 48.2793 61.1841 49.6704 61.1841C51.7896 61.1841 53.7812 60.357 55.2788 58.8544L55.8735 58.2576L66.4697 68.8883C67.3076 69.7289 67.3076 71.0965 66.4697 71.9371ZM72.7622 67.9014L72.7622 56.0709C72.7622 55.3592 72.1846 54.7818 71.4731 54.7818C70.7617 54.7818 70.1841 55.3592 70.1841 56.0709L70.1841 64.0939L67.0776 65.8463L57.6934 56.4321L59.0913 55.0302C59.5938 54.526 59.5923 53.7096 59.0879 53.2074C58.584 52.7045 57.7676 52.7059 57.2651 53.2101L53.4526 57.035C52.4429 58.0481 51.0991 58.6067 49.6704 58.6067C48.4688 58.6067 47.2905 58.1965 46.3525 57.4512C45.8389 57.043 45.1011 57.086 44.6377 57.5499L40.7588 61.442C40.2583 61.9435 39.6006 62.2201 38.9053 62.2201C38.2666 62.2201 37.6748 61.9797 37.2397 61.544C36.7915 61.0935 36.5508 60.4805 36.563 59.8185C36.5767 59.1364 36.8525 58.4905 37.3398 58.0011L48.8506 46.4546C49.1523 46.1518 49.5537 45.9846 49.98 45.9846L70.1841 45.9846L70.1841 49.8834C70.1841 50.5957 70.7607 51.1724 71.4731 51.1724C72.1846 51.1724 72.7622 50.5957 72.7622 49.8834L72.7622 41.1755L76.0459 41.1755L76.0459 67.9014L72.7622 67.9014ZM85.4219 70.6621L78.624 70.6621L78.624 38.4147L85.4219 38.4147L85.4219 70.6621Z" fill="#2B7AF1" fill-opacity="1.000000" fill-rule="nonzero"/>
		<path id="Vector" d="M82.0239 68.3552C82.3623 68.3552 82.6938 68.2176 82.9351 67.9772C83.1738 67.7362 83.311 67.4045 83.311 67.0662C83.311 66.7258 83.1738 66.3941 82.9351 66.1531C82.6938 65.9147 82.3623 65.7771 82.0239 65.7771C81.6836 65.7771 81.3521 65.9147 81.1113 66.1531C80.8706 66.3941 80.7329 66.7258 80.7329 67.0662C80.7329 67.4045 80.8706 67.7362 81.1113 67.9772C81.3521 68.2176 81.6836 68.3552 82.0239 68.3552Z" fill="url(#paint_linear_1_2158_0)" fill-opacity="1.000000" fill-rule="nonzero"/>
		<path id="Vector" d="M44 41.4265C46.6577 41.4265 49.2637 40.7095 51.5356 39.3539C52.1465 38.9887 52.3467 38.1978 51.9819 37.5862C51.6167 36.9752 50.8257 36.7751 50.2144 37.1397C48.3418 38.2576 46.1924 38.8484 44 38.8484C37.2852 38.8484 31.8223 33.3665 31.8223 26.6278C31.8223 19.8898 37.2852 14.4072 44 14.4072C50.7144 14.4072 56.1777 19.8898 56.1777 26.6278C56.1777 28.8407 55.582 31.0079 54.4565 32.8952C54.0913 33.5062 54.2915 34.2977 54.9033 34.6623C55.5146 35.0269 56.3057 34.8275 56.6704 34.2158C58.0347 31.9291 58.7559 29.3053 58.7559 26.6278C58.7559 18.4678 52.1362 11.8291 44 11.8291C35.8633 11.8291 29.2441 18.4678 29.2441 26.6278C29.2441 34.7878 35.8633 41.4265 44 41.4265Z" fill="#2B7AF1" fill-opacity="1.000000" fill-rule="nonzero"/>
		<path id="Vector" d="M39.5557 24.6788L39.5557 23.2883C39.5557 22.5767 38.979 21.9993 38.2666 21.9993C37.5547 21.9993 36.9775 22.5767 36.9775 23.2883L36.9775 24.6788C36.9775 25.3911 37.5547 25.9678 38.2666 25.9678C38.979 25.9678 39.5557 25.3911 39.5557 24.6788Z" fill="url(#paint_linear_1_2160_0)" fill-opacity="1.000000" fill-rule="nonzero"/>
		<path id="Vector" d="M51.0225 24.6788L51.0225 23.2883C51.0225 22.5767 50.4458 21.9993 49.7334 21.9993C49.0215 21.9993 48.4443 22.5767 48.4443 23.2883L48.4443 24.6788C48.4443 25.3911 49.0215 25.9678 49.7334 25.9678C50.4458 25.9678 51.0225 25.3911 51.0225 24.6788Z" fill="url(#paint_linear_1_2161_0)" fill-opacity="1.000000" fill-rule="nonzero"/>
		<path id="Vector" d="M44 34.3185C47.0752 34.3185 49.5771 32.0217 49.5771 29.1985C49.5771 28.4868 49 27.9094 48.2881 27.9094C47.5767 27.9094 46.999 28.4868 46.999 29.1985C46.999 30.5997 45.6538 31.7404 44 31.7404C42.3462 31.7404 41.001 30.5997 41.001 29.1985C41.001 28.4868 40.4233 27.9094 39.7119 27.9094C38.9995 27.9094 38.4229 28.4868 38.4229 29.1985C38.4229 32.0217 40.9243 34.3185 44 34.3185Z" fill="url(#paint_linear_1_2162_0)" fill-opacity="1.000000" fill-rule="nonzero"/>
		<path id="Vector" d="M65.4688 19.0197C70.3208 19.0197 74.2671 15.0626 74.2671 10.1977C74.2671 8.88379 73.978 7.6377 73.4614 6.51648L74.5654 5.40936C75.0684 4.90515 75.0669 4.08875 74.5625 3.58588C74.0586 3.08368 73.2422 3.08502 72.7397 3.58923L72.0181 4.31299C70.4062 2.51099 68.0679 1.375 65.4692 1.375C60.6182 1.375 56.6709 5.33282 56.6709 10.197C56.6709 15.0619 60.6172 19.0197 65.4688 19.0197ZM65.4688 3.95312C67.3579 3.95312 69.0518 4.80444 70.1938 6.14319L65.4688 10.8832L62.7236 8.12848C62.2212 7.62427 61.4048 7.6236 60.9009 8.12579C60.3965 8.62799 60.395 9.4444 60.8975 9.94861L64.1919 13.2538C64.5327 13.5956 64.9858 13.7836 65.4688 13.7836C65.9521 13.7836 66.4053 13.5956 66.7456 13.2538L71.4604 8.52393C71.6084 9.05701 71.689 9.61829 71.689 10.1977C71.689 13.6406 68.8989 16.4416 65.4688 16.4416C62.0386 16.4416 59.2485 13.6406 59.2485 10.1977C59.249 6.75482 62.0396 3.95312 65.4688 3.95312Z" fill="#2B7AF1" fill-opacity="1.000000" fill-rule="nonzero"/>
		<path id="Vector" d="M14.0493 18.8599L13.5942 21.5153C13.4458 22.3793 13.7939 23.236 14.5029 23.7516C14.8965 24.037 15.3613 24.188 15.8472 24.188C16.2163 24.188 16.5845 24.0974 16.9116 23.9255L19.2964 22.6721L21.6802 23.9255C22.0073 24.0974 22.375 24.188 22.7446 24.188C23.23 24.188 23.6953 24.0377 24.0884 23.7516C24.7974 23.236 25.146 22.3793 24.998 21.5153L24.543 18.8606L26.4722 16.98C27.0996 16.3684 27.3213 15.4701 27.0498 14.6356C26.7793 13.8024 26.0718 13.2062 25.2046 13.08L22.5381 12.6926L21.3467 10.2762C20.9585 9.49072 20.1724 9.00195 19.2964 9.00195C18.4194 9.00195 17.6338 9.49072 17.2456 10.2769L16.0532 12.6926L13.3872 13.08C12.52 13.2062 11.813 13.8024 11.5415 14.6362C11.271 15.4701 11.4927 16.3684 12.1206 16.98L14.0493 18.8599ZM17.0947 15.1465C17.5142 15.0854 17.8774 14.8215 18.0649 14.4409L19.2954 11.9473L20.5264 14.4409C20.7144 14.8215 21.0771 15.0854 21.4971 15.1465L24.249 15.546L22.2578 17.4869C21.9536 17.783 21.8154 18.21 21.8872 18.6283L22.3569 21.3689L19.8955 20.0745C19.7075 19.9758 19.5015 19.9268 19.2954 19.9268C19.0898 19.9268 18.8838 19.9758 18.6958 20.0745L16.2349 21.3689L16.7046 18.6283C16.7764 18.21 16.6382 17.783 16.334 17.4869L14.3428 15.546L17.0947 15.1465Z" fill="url(#paint_linear_1_2164_0)" fill-opacity="1.000000" fill-rule="nonzero"/>
	</g>
</svg>
