<svg width="81.000000" height="80.000000" viewBox="0 0 81 80" fill="none" xmlns="http://www.w3.org/2000/svg" xmlns:xlink="http://www.w3.org/1999/xlink">
	<desc>
			Created with Pixso.
	</desc>
	<defs>
		<clipPath id="clip1_2472">
			<rect id="Безопасность" width="80.000000" height="80.000000" fill="white" fill-opacity="0"/>
		</clipPath>
		<clipPath id="clip1_2482">
			<rect id="Документы" width="80.000000" height="80.000000" fill="white" fill-opacity="0"/>
		</clipPath>
		<clipPath id="clip1_2492">
			<rect id="Время" width="80.000000" height="80.000000" fill="white" fill-opacity="0"/>
		</clipPath>
		<clipPath id="clip1_2504">
			<rect id="Деньги" width="80.000000" height="80.000000" transform="translate(1.000000 0.000000)" fill="white" fill-opacity="0"/>
		</clipPath>
		<linearGradient id="paint_linear_1_2487_0" x1="14.926752" y1="65.307617" x2="50.385654" y2="65.151367" gradientUnits="userSpaceOnUse">
			<stop stop-color="#FF7A00"/>
			<stop offset="1.000000" stop-color="#FFB039"/>
		</linearGradient>
		<linearGradient id="paint_linear_1_2488_0" x1="21.259764" y1="59.057617" x2="50.385548" y2="58.901367" gradientUnits="userSpaceOnUse">
			<stop stop-color="#FF7A00"/>
			<stop offset="1.000000" stop-color="#FFB039"/>
		</linearGradient>
		<linearGradient id="paint_linear_1_2489_0" x1="14.926758" y1="59.057858" x2="18.051760" y2="58.901608" gradientUnits="userSpaceOnUse">
			<stop stop-color="#FF7A00"/>
			<stop offset="1.000000" stop-color="#FFB039"/>
		</linearGradient>
		<linearGradient id="paint_linear_1_2490_0" x1="14.926754" y1="71.557678" x2="50.385815" y2="71.401428" gradientUnits="userSpaceOnUse">
			<stop stop-color="#FF7A00"/>
			<stop offset="1.000000" stop-color="#FFB039"/>
		</linearGradient>
		<linearGradient id="paint_linear_1_2491_0" x1="57.968750" y1="30.339111" x2="61.093750" y2="30.182861" gradientUnits="userSpaceOnUse">
			<stop stop-color="#FF7A00"/>
			<stop offset="1.000000" stop-color="#FFB039"/>
		</linearGradient>
		<linearGradient id="paint_linear_1_2496_0" x1="68.089844" y1="68.047974" x2="71.214844" y2="67.891724" gradientUnits="userSpaceOnUse">
			<stop stop-color="#FF7A00"/>
			<stop offset="1.000000" stop-color="#FFB039"/>
		</linearGradient>
		<linearGradient id="paint_linear_1_2497_0" x1="24.199219" y1="46.834858" x2="72.677788" y2="44.410946" gradientUnits="userSpaceOnUse">
			<stop stop-color="#FF7A00"/>
			<stop offset="1.000000" stop-color="#FFB039"/>
		</linearGradient>
		<linearGradient id="paint_linear_1_2503_0" x1="-0.000000" y1="56.475952" x2="3.125000" y2="56.319702" gradientUnits="userSpaceOnUse">
			<stop stop-color="#FF7A00"/>
			<stop offset="1.000000" stop-color="#FFB039"/>
		</linearGradient>
	</defs>
	<rect id="Время" width="80.000000" height="80.000000" fill="#FFFFFF" fill-opacity="0"/>
	<g clip-path="url(#clip1_2492)">
		<path id="XMLID 389" d="M79.8457 43.6954C79.1274 36.4706 75.8999 29.6594 70.7568 24.5164C66.3618 20.1215 60.9824 17.2972 55.3218 16.0414L55.3218 12.0713C57.6338 11.4962 59.3525 9.40344 59.3525 6.91614C59.3525 3.98669 56.9692 1.60352 54.0396 1.60352L42.7896 1.60352C39.8604 1.60352 37.4771 3.98669 37.4771 6.91614C37.4771 9.40332 39.1953 11.496 41.5073 12.0713L41.5073 16.0525C35.8643 17.3136 30.5024 20.1339 26.1201 24.5165C25.1606 25.4756 24.2764 26.4817 23.4668 27.5273C23.4277 27.5244 23.3887 27.5214 23.3486 27.5214L12.2139 27.5214C11.3511 27.5214 10.6514 28.2209 10.6514 29.084C10.6514 29.9469 11.3511 30.6465 12.2139 30.6465L21.3408 30.6465C20.1953 32.5645 19.2715 34.5787 18.5684 36.6522L1.5625 36.6522C0.699707 36.6522 0 37.3517 0 38.2147C0 39.0776 0.699707 39.7772 1.5625 39.7772L17.6851 39.7772C17.2349 41.754 16.9766 43.7657 16.9097 45.7831L10 45.7831C9.13721 45.7831 8.4375 46.4827 8.4375 47.3456C8.4375 48.2086 9.13721 48.9082 10 48.9082L16.9595 48.9082C17.0913 50.9307 17.4165 52.9426 17.9351 54.9141L7.8125 54.9141C6.94971 54.9141 6.25 55.6135 6.25 56.4766C6.25 57.3396 6.94971 58.0391 7.8125 58.0391L18.9326 58.0391C20.4653 62.094 22.8608 65.8945 26.1201 69.1537C31.2681 74.3015 38.0859 77.53 45.3184 78.2445C46.3506 78.3464 47.3838 78.3969 48.415 78.3969C54.5122 78.3969 60.5322 76.6323 65.6401 73.306C66.3633 72.8351 66.5679 71.8671 66.0967 71.144C65.626 70.4209 64.6577 70.2163 63.9346 70.6873C52.7539 77.9681 37.7798 76.3939 28.3296 66.9438C17.2417 55.856 17.2417 37.8146 28.3296 26.7264C39.4175 15.6385 57.459 15.6385 68.5469 26.7264C77.9844 36.1641 79.5674 51.1254 72.3105 62.3009C71.8403 63.0247 72.0464 63.9924 72.77 64.4623C73.4941 64.9324 74.4614 64.7266 74.9312 64.0028C78.8086 58.0316 80.5537 50.8197 79.8457 43.6954ZM40.6021 6.91626C40.6021 5.70996 41.5835 4.72876 42.7896 4.72876L54.0396 4.72876C55.2461 4.72876 56.2271 5.70996 56.2271 6.91626C56.2271 8.12256 55.2461 9.10376 54.0396 9.10376L53.7593 9.10376L43.0698 9.10376L42.7896 9.10376C41.5835 9.10376 40.6021 8.12231 40.6021 6.91626ZM44.6323 15.5153L44.6323 12.2289L52.1968 12.2289L52.1968 15.5096C49.6851 15.2109 47.1436 15.2128 44.6323 15.5153Z" fill="#2B7AF1" fill-opacity="1.000000" fill-rule="nonzero"/>
		<path id="XMLID 391" d="M69.6523 66.4855C69.2397 66.4855 68.8384 66.6527 68.5479 66.9432C68.2559 67.2339 68.0898 67.6371 68.0898 68.048C68.0898 68.4589 68.2559 68.8621 68.5479 69.1527C68.8384 69.4448 69.2402 69.6105 69.6523 69.6105C70.0635 69.6105 70.4648 69.4448 70.7568 69.1527C71.0479 68.8621 71.2148 68.4589 71.2148 68.048C71.2148 67.6371 71.0479 67.2339 70.7568 66.9432C70.4648 66.6527 70.063 66.4855 69.6523 66.4855Z" fill="url(#paint_linear_1_2496_0)" fill-opacity="1.000000" fill-rule="nonzero"/>
		<path id="XMLID 394" d="M48.4385 22.5956C35.0728 22.5956 24.1992 33.4692 24.1992 46.8348C24.1992 60.2006 35.0728 71.0741 48.4385 71.0741C61.8042 71.0741 72.6777 60.2006 72.6777 46.8348C72.6777 33.4692 61.8042 22.5956 48.4385 22.5956ZM48.4385 67.9491C36.7959 67.9491 27.3242 58.4773 27.3242 46.8348C27.3242 35.1925 36.7959 25.7206 48.4385 25.7206C60.0811 25.7206 69.5527 35.1925 69.5527 46.8348C69.5527 58.4773 60.0811 67.9491 48.4385 67.9491Z" fill="url(#paint_linear_1_2497_0)" fill-opacity="1.000000" fill-rule="nonzero"/>
		<path id="XMLID 397" d="M58.3223 34.7412L50.583 42.4802C49.936 42.1602 49.208 41.9795 48.4385 41.9795C47.6689 41.9795 46.9409 42.1602 46.2939 42.4802L42.8301 39.0166C42.2197 38.4064 41.2305 38.4064 40.6201 39.0166C40.0103 39.6267 40.0103 40.6161 40.6201 41.2263L44.084 44.6899C43.7637 45.3372 43.583 46.0652 43.583 46.8347C43.583 49.5118 45.7612 51.6901 48.4385 51.6901C51.1157 51.6901 53.2939 49.5118 53.2939 46.8347C53.2939 46.0652 53.1133 45.3372 52.793 44.6899L60.3052 37.178L60.5322 36.9509C61.1421 36.3407 61.1421 35.3513 60.5322 34.7412C59.9219 34.131 58.9326 34.131 58.3223 34.7412ZM48.4385 48.5652C47.4844 48.5652 46.708 47.7889 46.708 46.8348C46.708 45.8807 47.4844 45.1045 48.4385 45.1045C49.3926 45.1045 50.1689 45.8807 50.1689 46.8348C50.1689 47.7889 49.3926 48.5652 48.4385 48.5652Z" fill="#2B7AF1" fill-opacity="1.000000" fill-rule="nonzero"/>
		<path id="XMLID 398" d="M65.145 45.2913L63.6973 45.2913C62.8345 45.2913 62.1348 45.9908 62.1348 46.8538C62.1348 47.7167 62.8345 48.4163 63.6973 48.4163L65.145 48.4163C66.0078 48.4163 66.7075 47.7167 66.7075 46.8538C66.7075 45.9908 66.0078 45.2913 65.145 45.2913Z" fill="#2B7AF1" fill-opacity="1.000000" fill-rule="nonzero"/>
		<path id="XMLID 399" d="M33.1792 45.2532L31.7319 45.2532C30.8691 45.2532 30.1694 45.9528 30.1694 46.8157C30.1694 47.6786 30.8691 48.3782 31.7319 48.3782L33.1792 48.3782C34.0425 48.3782 34.7417 47.6786 34.7417 46.8157C34.7417 45.9528 34.0425 45.2532 33.1792 45.2532Z" fill="#2B7AF1" fill-opacity="1.000000" fill-rule="nonzero"/>
		<path id="XMLID 400" d="M48.4575 33.1384C49.3203 33.1384 50.02 32.4388 50.02 31.5759L50.02 30.1284C50.02 29.2655 49.3203 28.5659 48.4575 28.5659C47.5947 28.5659 46.895 29.2655 46.895 30.1284L46.895 31.5759C46.895 32.4388 47.5947 33.1384 48.4575 33.1384Z" fill="#2B7AF1" fill-opacity="1.000000" fill-rule="nonzero"/>
		<path id="XMLID 424" d="M48.4194 60.5311C47.5566 60.5311 46.8569 61.2307 46.8569 62.0936L46.8569 63.5411C46.8569 64.4041 47.5566 65.1036 48.4194 65.1036C49.2822 65.1036 49.9819 64.4041 49.9819 63.5411L49.9819 62.0936C49.9819 61.2307 49.2822 60.5311 48.4194 60.5311Z" fill="#2B7AF1" fill-opacity="1.000000" fill-rule="nonzero"/>
		<path id="XMLID 425" d="M1.5625 54.9135C1.15137 54.9135 0.748535 55.0807 0.458008 55.3712C0.166992 55.6619 0 56.0651 0 56.476C0 56.8884 0.166992 57.29 0.458008 57.5807C0.748535 57.8712 1.15137 58.0385 1.5625 58.0385C1.97363 58.0385 2.37646 57.8712 2.66699 57.5807C2.95752 57.29 3.125 56.8868 3.125 56.476C3.125 56.0651 2.95801 55.6619 2.66699 55.3712C2.37646 55.0807 1.97363 54.9135 1.5625 54.9135Z" fill="url(#paint_linear_1_2503_0)" fill-opacity="1.000000" fill-rule="nonzero"/>
	</g>
</svg>
