<svg width="80.000000" height="80.000000" viewBox="0 0 80 80" fill="none" xmlns="http://www.w3.org/2000/svg" xmlns:xlink="http://www.w3.org/1999/xlink">
	<desc>
			Created with Pixso.
	</desc>
	<defs>
		<clipPath id="clip1_2296">
			<rect id="home 1" width="80.000000" height="80.000000" fill="white" fill-opacity="0"/>
		</clipPath>
		<linearGradient id="paint_linear_1_2302_0" x1="35.040039" y1="51.995846" x2="44.960049" y2="51.626125" gradientUnits="userSpaceOnUse">
			<stop stop-color="#FF7A00"/>
			<stop offset="1.000000" stop-color="#FFB039"/>
		</linearGradient>
		<linearGradient id="paint_linear_1_2303_0" x1="33.777344" y1="33.528877" x2="46.222645" y2="32.906609" gradientUnits="userSpaceOnUse">
			<stop stop-color="#FF7A00"/>
			<stop offset="1.000000" stop-color="#FFB039"/>
		</linearGradient>
	</defs>
	<rect id="home 1" width="80.000000" height="80.000000" fill="#FFFFFF" fill-opacity="0"/>
	<g clip-path="url(#clip1_2296)">
		<path id="Vector" d="M77.2495 26.2011L76.4863 26.2011L69.3267 6.92532C68.6997 5.23767 67.0688 4.10376 65.2686 4.10376L14.731 4.10376C12.9312 4.10376 11.3003 5.23767 10.6733 6.92532L3.51367 26.2011L2.75049 26.2011C1.23389 26.2011 0 27.4348 0 28.9514L0 31.1611C0 32.6777 1.23389 33.9114 2.75049 33.9114L3.15674 33.9114L3.15674 59.5974C3.15674 60.2445 3.68164 60.7692 4.32861 60.7692C4.97607 60.7692 5.50049 60.2445 5.50049 59.5974L5.50049 33.9114L23.9004 33.9114C24.9302 33.9114 25.8984 33.5105 26.627 32.7822L40 19.4086L53.3735 32.7822C54.1016 33.5103 55.0698 33.9113 56.0996 33.9113L74.4995 33.9113L74.4995 37.0181C74.4995 37.6653 75.0239 38.19 75.6714 38.19C76.3188 38.19 76.8433 37.6653 76.8433 37.0181L76.8433 33.9113L77.25 33.9113C78.7661 33.9113 80 32.6775 80 31.1609L80 28.9513C80 27.4348 78.7661 26.2011 77.2495 26.2011ZM12.8701 7.74126C13.1577 6.96735 13.9058 6.44751 14.731 6.44751L65.2686 6.44751C66.0942 6.44751 66.8418 6.96751 67.1294 7.74126L73.9858 26.2011L57.6963 26.2011L42.7261 11.2308C41.998 10.5027 41.0298 10.1016 40 10.1016C38.9702 10.1016 38.002 10.5025 37.2739 11.2308L22.3037 26.2011L6.01367 26.2011L12.8701 7.74126ZM77.6562 31.1611C77.6562 31.3853 77.4741 31.5677 77.2495 31.5677L56.0996 31.5677C55.6958 31.5677 55.3159 31.4105 55.0308 31.125L40.8286 16.9228C40.6089 16.703 40.3105 16.5795 40 16.5795C39.689 16.5795 39.3911 16.703 39.1709 16.9228L24.9692 31.125C24.6836 31.4105 24.3037 31.5677 23.9004 31.5677L2.75049 31.5677C2.52588 31.5677 2.34375 31.3853 2.34375 31.1611L2.34375 28.9514C2.34375 28.7272 2.52588 28.5449 2.75049 28.5449L22.7891 28.5449C23.0996 28.5449 23.3979 28.4214 23.6177 28.2016L38.9316 12.888C39.2168 12.6025 39.5962 12.4453 40 12.4453C40.4038 12.4453 40.7832 12.6025 41.0688 12.888L56.3823 28.2016C56.6025 28.4214 56.9004 28.5449 57.2114 28.5449L77.25 28.5449C77.4741 28.5449 77.6567 28.7272 77.6567 28.9514L77.6567 31.1611L77.6562 31.1611Z" fill="#2B7AF1" fill-opacity="1.000000" fill-rule="nonzero"/>
		<path id="Vector" d="M70.4624 66.4261C71.1099 66.4261 71.6343 65.9014 71.6343 65.2542L71.6343 44.4197C71.6343 43.7725 71.1099 43.2478 70.4624 43.2478L54.6787 43.2478C54.0312 43.2478 53.5068 43.7725 53.5068 44.4197L53.5068 65.2542C53.5068 65.9014 54.0312 66.4261 54.6787 66.4261L70.4624 66.4261ZM69.2905 59.0316L63.7427 59.0316L63.7427 53.4834L69.2905 53.4834L69.2905 59.0316ZM61.3989 59.0316L55.8506 59.0316L55.8506 53.4834L61.3989 53.4834L61.3989 59.0316ZM69.2905 64.0823L55.8506 64.0823L55.8506 61.3753L69.2905 61.3753L69.2905 64.0823ZM69.2905 51.1395L63.7427 51.1395L63.7427 45.5914L69.2905 45.5914L69.2905 51.1395ZM61.3989 45.5916L61.3989 51.1397L55.8506 51.1397L55.8506 45.5916L61.3989 45.5916Z" fill="#2B7AF1" fill-opacity="1.000000" fill-rule="nonzero"/>
		<path id="Vector" d="M25.3208 66.4261C25.9683 66.4261 26.4927 65.9014 26.4927 65.2542L26.4927 44.4197C26.4927 43.7725 25.9683 43.2478 25.3208 43.2478L9.53711 43.2478C8.88965 43.2478 8.36523 43.7725 8.36523 44.4197L8.36523 65.2542C8.36523 65.9014 8.88965 66.4261 9.53711 66.4261L25.3208 66.4261ZM24.1489 59.0316L18.6011 59.0316L18.6011 53.4834L24.1489 53.4834L24.1489 59.0316ZM16.2573 59.0316L10.709 59.0316L10.709 53.4834L16.2573 53.4834L16.2573 59.0316ZM24.1489 64.0823L10.709 64.0823L10.709 61.3753L24.1489 61.3753L24.1489 64.0823ZM24.1489 51.1395L18.6011 51.1395L18.6011 45.5914L24.1489 45.5914L24.1489 51.1395ZM16.2573 45.5916L16.2573 51.1397L10.709 51.1397L10.709 45.5916L16.2573 45.5916Z" fill="#2B7AF1" fill-opacity="1.000000" fill-rule="nonzero"/>
		<path id="Vector" d="M43.7881 48.2986L36.2119 48.2986C35.5645 48.2986 35.04 48.8233 35.04 49.4705L35.04 54.5212C35.04 55.1684 35.5645 55.6931 36.2119 55.6931L43.7881 55.6931C44.4355 55.6931 44.96 55.1684 44.96 54.5212L44.96 49.4705C44.96 48.8233 44.4355 48.2986 43.7881 48.2986ZM42.6162 53.3494L37.3838 53.3494L37.3838 50.6423L42.6162 50.6423L42.6162 53.3494Z" fill="url(#paint_linear_1_2302_0)" fill-opacity="1.000000" fill-rule="nonzero"/>
		<path id="Vector" d="M46.2227 33.5288C46.2227 30.0977 43.4312 27.3062 40 27.3062C36.5688 27.3062 33.7773 30.0977 33.7773 33.5288C33.7773 36.9599 36.5688 39.7516 40 39.7516C43.4312 39.7516 46.2227 36.9601 46.2227 33.5288ZM36.1211 33.5288C36.1211 31.3901 37.8613 29.6499 40 29.6499C42.1387 29.6499 43.8789 31.3901 43.8789 33.5288C43.8789 35.6676 42.1387 37.4079 40 37.4079C37.8613 37.4079 36.1211 35.6677 36.1211 33.5288Z" fill="url(#paint_linear_1_2303_0)" fill-opacity="1.000000" fill-rule="nonzero"/>
		<path id="Vector" d="M78.8281 68.1859L76.8433 68.1859L76.8433 42.5C76.8433 41.8528 76.3188 41.3281 75.6714 41.3281C75.0239 41.3281 74.4995 41.8528 74.4995 42.5L74.4995 68.1859L50.0107 68.1859L50.0107 44.4195C50.0107 43.7723 49.4863 43.2477 48.8389 43.2477L31.1611 43.2477C30.5137 43.2477 29.9893 43.7723 29.9893 44.4195L29.9893 68.1859L5.50049 68.1859L5.50049 65.0791C5.50049 64.4319 4.97607 63.9072 4.32861 63.9072C3.68115 63.9072 3.15674 64.4319 3.15674 65.0791L3.15674 68.1859L1.17188 68.1859C0.524414 68.1859 0 68.7106 0 69.3578L0 74.7244C0 75.3716 0.524414 75.8962 1.17188 75.8962L78.8281 75.8962C79.4756 75.8962 80 75.3716 80 74.7244L80 69.3578C80 68.7106 79.4756 68.1859 78.8281 68.1859ZM32.333 59.6389L34.0024 59.6389C34.6499 59.6389 35.1743 59.1142 35.1743 58.467C35.1743 57.8198 34.6499 57.2952 34.0024 57.2952L32.333 57.2952L32.333 45.5914L47.667 45.5914L47.667 68.1859L32.333 68.1859L32.333 59.6389ZM77.6562 73.5525L2.34375 73.5525L2.34375 70.5297L77.6562 70.5297L77.6562 73.5525Z" fill="#2B7AF1" fill-opacity="1.000000" fill-rule="nonzero"/>
	</g>
</svg>
