<svg width="20.000000" height="20.000000" viewBox="0 0 20 20" fill="none" xmlns="http://www.w3.org/2000/svg" xmlns:xlink="http://www.w3.org/1999/xlink">
	<desc>
			Created with Pixso.
	</desc>
	<defs/>
	<circle id="Ellipse" cx="10.000000" cy="10.000000" r="10.000000" fill="#FFFFFF" fill-opacity="1.000000"/>
	<path id="Vector" d="M13.29 6L7.2 6C6.52 6 6 6.52 6 7.2L6 13.29C6 13.97 6.52 14.5 7.2 14.5L13.29 14.5C13.97 14.5 14.5 13.97 14.5 13.29L14.5 7.2C14.5 6.52 13.97 6 13.29 6ZM10.25 12.8C11.65 12.8 12.8 11.68 12.8 10.34C12.8 10.11 12.76 9.85 12.7 9.66L13.42 9.66L13.42 13.12C13.42 13.29 13.29 13.45 13.09 13.45L7.4 13.45C7.24 13.45 7.07 13.32 7.07 13.12L7.07 9.62L7.83 9.62C7.76 9.85 7.73 10.08 7.73 10.31C7.69 11.68 8.84 12.8 10.25 12.8ZM10.25 11.81C9.33 11.81 8.61 11.1 8.61 10.21C8.61 9.33 9.33 8.61 10.25 8.61C11.16 8.61 11.88 9.33 11.88 10.21C11.88 11.13 11.16 11.81 10.25 11.81ZM13.38 8.32C13.38 8.51 13.22 8.68 13.02 8.68L12.11 8.68C11.91 8.68 11.75 8.51 11.75 8.32L11.75 7.43C11.75 7.24 11.91 7.07 12.11 7.07L13.02 7.07C13.22 7.07 13.38 7.24 13.38 7.43L13.38 8.32Z" fill="#2B7AF1" fill-opacity="1.000000" fill-rule="nonzero"/>
</svg>
