<svg width="40.000000" height="40.000000" viewBox="0 0 40 40" fill="none" xmlns="http://www.w3.org/2000/svg" xmlns:xlink="http://www.w3.org/1999/xlink">
	<desc>
			Created with Pixso.
	</desc>
	<defs/>
	<circle id="Ellipse" cx="20.000000" cy="20.000000" r="20.000000" fill="#2B7AF1" fill-opacity="1.000000"/>
	<path id="Vector" d="M26.5806 12L14.4194 12C13.0464 12 12 13.0461 12 14.4192L12 26.5808C12 27.9539 13.0464 29 14.4194 29L26.5806 29C27.9536 29 29 27.9539 29 26.5808L29 14.4192C29 13.0461 27.9536 12 26.5806 12ZM20.5 25.6C23.3115 25.6 25.6001 23.3769 25.6001 20.6962C25.6001 20.2385 25.5347 19.7154 25.4038 19.3231L26.8423 19.3231L26.8423 26.2538C26.8423 26.5808 26.5806 26.9077 26.1885 26.9077L14.8115 26.9077C14.4844 26.9077 14.1577 26.6461 14.1577 26.2538L14.1577 19.2577L15.6616 19.2577C15.5308 19.7154 15.4653 20.1731 15.4653 20.6308C15.3999 23.3769 17.6885 25.6 20.5 25.6ZM20.5 23.6385C18.6694 23.6385 17.231 22.2 17.231 20.4346C17.231 18.6692 18.6694 17.2308 20.5 17.2308C22.3306 17.2308 23.769 18.6692 23.769 20.4346C23.769 22.2654 22.3306 23.6385 20.5 23.6385ZM26.7769 16.6423C26.7769 17.0346 26.4502 17.3615 26.0576 17.3615L24.2271 17.3615C23.8345 17.3615 23.5078 17.0346 23.5078 16.6423L23.5078 14.8769C23.5078 14.4846 23.8345 14.1577 24.2271 14.1577L26.0576 14.1577C26.4502 14.1577 26.7769 14.4846 26.7769 14.8769L26.7769 16.6423Z" fill="#FFFFFF" fill-opacity="1.000000" fill-rule="nonzero"/>
</svg>
