<svg width="40.000000" height="40.000000" viewBox="0 0 40 40" fill="none" xmlns="http://www.w3.org/2000/svg" xmlns:xlink="http://www.w3.org/1999/xlink">
	<desc>
			Created with Pixso.
	</desc>
	<defs>
		<clipPath id="clip1_2076">
			<rect id="Location" width="20.000000" height="20.000000" transform="translate(10.000000 9.892334)" fill="white" fill-opacity="0"/>
		</clipPath>
	</defs>
	<circle id="Ellipse 7" cx="20.000000" cy="20.000000" r="20.000000" fill="#2B7AF1" fill-opacity="1.000000"/>
	<rect id="Location" width="20.000000" height="20.000000" transform="translate(10.000000 9.892334)" fill="#FFFFFF" fill-opacity="0"/>
	<g clip-path="url(#clip1_2076)">
		<path id="Vector" d="M20 11.1423C18.1772 11.1445 16.4297 11.8695 15.1411 13.1584C13.8521 14.4472 13.127 16.1946 13.125 18.0173C13.123 19.5069 13.6094 20.9559 14.5098 22.1423C14.5098 22.1423 14.6973 22.3892 14.728 22.4248L20 28.6423L25.2744 22.4217C25.3018 22.3886 25.4902 22.1423 25.4902 22.1423L25.4907 22.1405C26.3906 20.9546 26.877 19.5062 26.875 18.0173C26.873 16.1946 26.1479 14.4472 24.8589 13.1584C23.5703 11.8695 21.8228 11.1445 20 11.1423ZM22.25 21.1423L20 19.7105L17.75 21.1423L18.125 18.5961L16.25 16.8755L18.875 16.5586L20 14.2673L21.1948 16.5592L23.75 16.8755L21.875 18.5961L22.25 21.1423Z" fill="#FFFFFF" fill-opacity="1.000000" fill-rule="nonzero"/>
	</g>
</svg>
