<svg width="22.000000" height="22.000000" viewBox="0 0 22 22" fill="none" xmlns="http://www.w3.org/2000/svg" xmlns:xlink="http://www.w3.org/1999/xlink">
	<desc>
			Created with Pixso.
	</desc>
	<defs>
		<clipPath id="clip1_2396">
			<rect id="Location_Icon" width="22.000000" height="22.000000" fill="white" fill-opacity="0"/>
		</clipPath>
	</defs>
	<rect id="Location_Icon" width="22.000000" height="22.000000" fill="#FFFFFF" fill-opacity="0"/>
	<g clip-path="url(#clip1_2396)">
		<path id="Vector" d="M11 1.375C8.99512 1.37738 7.07275 2.17487 5.65527 3.59259C4.2373 5.01038 3.43994 6.93256 3.4375 8.9375C3.43506 10.576 3.97021 12.17 4.96094 13.475C4.96094 13.475 5.16748 13.7466 5.20117 13.7858L11 20.625L16.8018 13.7823C16.832 13.7458 17.0391 13.475 17.0391 13.475L17.0396 13.473C18.0298 12.1685 18.5649 10.5752 18.5625 8.9375C18.5601 6.93256 17.7627 5.01038 16.3447 3.59259C14.9272 2.17487 13.0049 1.37738 11 1.375ZM13.4751 12.375L11 10.7999L8.5249 12.375L8.9375 9.5741L6.875 7.68146L9.7627 7.33289L11 4.8125L12.3145 7.33356L15.125 7.68146L13.0625 9.5741L13.4751 12.375Z" fill="#F73E3E" fill-opacity="1.000000" fill-rule="nonzero"/>
	</g>
</svg>
