<svg width="40.000000" height="40.000000" viewBox="0 0 40 40" fill="none" xmlns="http://www.w3.org/2000/svg" xmlns:xlink="http://www.w3.org/1999/xlink">
	<desc>
			Created with Pixso.
	</desc>
	<defs>
		<clipPath id="clip1_2083">
			<rect id="carbon:email" width="20.000000" height="20.000000" transform="translate(10.000000 10.000000)" fill="white" fill-opacity="0"/>
		</clipPath>
	</defs>
	<circle id="Ellipse 6" cx="20.000000" cy="20.000000" r="20.000000" fill="#2B7AF1" fill-opacity="1.000000"/>
	<rect id="carbon:email" width="20.000000" height="20.000000" transform="translate(10.000000 10.000000)" fill="#FFFFFF" fill-opacity="0"/>
	<g clip-path="url(#clip1_2083)">
		<path id="Vector" d="M28.4023 12.8923L11.5977 12.8923C11.439 12.8925 11.2871 12.9532 11.1753 13.0611C11.063 13.1689 11 13.3152 11 13.4677L11 14.6251C11 14.6784 11.0601 14.7396 11.1094 14.7643L19.9424 19.6205C19.9648 19.6329 19.9907 19.6394 20.0166 19.6392C20.0435 19.6393 20.0693 19.6324 20.0923 19.6194L28.6587 14.7691C28.7065 14.7432 28.8345 14.6748 28.8823 14.6433C28.9399 14.6053 29 14.5708 29 14.5027L29 13.4674C29 13.315 28.937 13.1688 28.8247 13.061C28.7129 12.9532 28.561 12.8925 28.4023 12.8923Z" fill="#FFFFFF" fill-opacity="1.000000" fill-rule="nonzero"/>
		<path id="Vector" d="M28.9253 16.3701C28.9023 16.3575 28.8765 16.3509 28.8496 16.3511C28.8232 16.3512 28.7974 16.3581 28.7744 16.371L23.9268 19.1162C23.9077 19.1271 23.8911 19.1419 23.8784 19.1598C23.8662 19.1776 23.8579 19.1979 23.8545 19.2192C23.8516 19.2405 23.853 19.2622 23.8599 19.2827C23.8662 19.3033 23.8779 19.3221 23.8931 19.3379L28.7412 24.3682C28.7554 24.3827 28.772 24.3943 28.791 24.4022C28.8096 24.4101 28.8301 24.4141 28.8506 24.4141C28.8901 24.414 28.9282 24.3988 28.9561 24.3719C28.9839 24.345 29 24.3084 29 24.2703L29 16.495C29 16.4697 28.9932 16.4448 28.98 16.4229C28.9668 16.401 28.9482 16.3828 28.9253 16.3701Z" fill="#FFFFFF" fill-opacity="1.000000" fill-rule="nonzero"/>
		<path id="Vector" d="M22.5303 20.038C22.5068 20.0139 22.4761 19.9981 22.4424 19.9933C22.4087 19.9884 22.3745 19.9949 22.3452 20.0115L20.4019 21.1119C20.2881 21.1752 20.1592 21.209 20.0278 21.2098C19.8965 21.2106 19.7666 21.1785 19.6523 21.1167L17.9424 20.1764C17.9146 20.1613 17.8828 20.155 17.8511 20.1584C17.8193 20.1619 17.79 20.175 17.7666 20.1957L11.2729 25.9931C11.2559 26.0084 11.2432 26.0273 11.2349 26.0484C11.2266 26.0694 11.2241 26.092 11.2266 26.1143C11.229 26.1366 11.2373 26.158 11.25 26.1768C11.2627 26.1956 11.2798 26.2113 11.2998 26.2226C11.4009 26.2797 11.498 26.307 11.5972 26.307L28.2305 26.307C28.2598 26.307 28.2881 26.2988 28.3125 26.2834C28.3364 26.268 28.356 26.2461 28.3672 26.2203C28.3789 26.1947 28.3823 26.1664 28.3774 26.1388C28.3726 26.1113 28.3594 26.0857 28.3394 26.0653L22.5303 20.038Z" fill="#FFFFFF" fill-opacity="1.000000" fill-rule="nonzero"/>
		<path id="Vector" d="M16.3379 19.51C16.355 19.4947 16.3682 19.4757 16.3765 19.4545C16.3848 19.4334 16.3877 19.4107 16.3848 19.3883C16.3823 19.3659 16.374 19.3444 16.3613 19.3256C16.3486 19.3067 16.3311 19.291 16.311 19.2798L11.2227 16.4826C11.2002 16.4702 11.1743 16.4637 11.1484 16.4639C11.1221 16.464 11.0967 16.4708 11.0742 16.4834C11.0513 16.4961 11.0327 16.5142 11.0195 16.536C11.0068 16.5578 11 16.5826 11 16.6077L11 23.9472C11 23.9752 11.0083 24.0027 11.0239 24.0262C11.04 24.0497 11.0625 24.0682 11.0894 24.0794C11.1162 24.0906 11.1455 24.094 11.1743 24.0892C11.2031 24.0844 11.2295 24.0717 11.251 24.0525L16.3379 19.51Z" fill="#FFFFFF" fill-opacity="1.000000" fill-rule="nonzero"/>
	</g>
</svg>
