<svg width="20.000000" height="20.000000" viewBox="0 0 20 20" fill="none" xmlns="http://www.w3.org/2000/svg" xmlns:xlink="http://www.w3.org/1999/xlink">
	<desc>
			Created with Pixso.
	</desc>
	<defs/>
	<circle id="Ellipse" cx="10.000000" cy="10.000000" r="10.000000" fill="#FFFFFF" fill-opacity="1.000000"/>
	<path id="Vector" d="M4.67 10.18L6.97 11.04L7.87 13.92C7.9 14.12 8.14 14.16 8.29 14.04L9.58 12.99C9.7 12.87 9.89 12.87 10.05 12.99L12.35 14.66C12.5 14.78 12.74 14.7 12.78 14.51L14.49 6.32C14.53 6.13 14.33 5.93 14.14 6.01L4.67 9.68C4.44 9.75 4.44 10.1 4.67 10.18ZM7.75 10.61L12.27 7.84C12.35 7.81 12.42 7.92 12.35 7.96L8.64 11.43C8.53 11.55 8.41 11.7 8.41 11.9L8.29 12.83C8.29 12.95 8.1 12.99 8.06 12.83L7.59 11.12C7.48 10.92 7.55 10.69 7.75 10.61Z" fill="#2B7AF1" fill-opacity="1.000000" fill-rule="nonzero"/>
</svg>
