<svg width="40.000000" height="40.000000" viewBox="0 0 40 40" fill="none" xmlns="http://www.w3.org/2000/svg" xmlns:xlink="http://www.w3.org/1999/xlink">
	<desc>
			Created with Pixso.
	</desc>
	<defs/>
	<circle id="Ellipse" cx="20.000000" cy="20.000000" r="20.000000" fill="#2B7AF1" fill-opacity="1.000000"/>
	<path id="Vector" d="M9.35059 20.374L13.9487 22.0886L15.7412 27.8557C15.8193 28.2454 16.2866 28.3232 16.5986 28.0896L19.1704 25.9854C19.4043 25.7515 19.7939 25.7515 20.1055 25.9854L24.7036 29.3364C25.0151 29.5703 25.4829 29.4143 25.561 29.0247L28.9897 12.6587C29.0679 12.269 28.6782 11.8794 28.2886 12.0352L9.35059 19.3608C8.8833 19.5168 8.8833 20.2183 9.35059 20.374ZM15.5073 21.2314L24.5479 15.698C24.7036 15.6201 24.8594 15.854 24.7036 15.9319L17.2998 22.8679C17.0659 23.1018 16.8325 23.4136 16.8325 23.8032L16.5986 25.6736C16.5986 25.9075 16.209 25.9854 16.1309 25.6736L15.1958 22.2444C14.9619 21.8547 15.1177 21.3872 15.5073 21.2314Z" fill="#FFFFFF" fill-opacity="1.000000" fill-rule="nonzero"/>
</svg>
