<svg width="40.000000" height="40.000000" viewBox="0 0 40 40" fill="none" xmlns="http://www.w3.org/2000/svg" xmlns:xlink="http://www.w3.org/1999/xlink">
	<desc>
			Created with Pixso.
	</desc>
	<defs/>
	<circle id="Ellipse" cx="20.000000" cy="20.000000" r="20.000000" fill="#2B7AF1" fill-opacity="1.000000"/>
	<path id="Vector" d="M29.8062 25.1153C29.8062 25.0322 29.7231 25.0322 29.7231 24.9492C29.3911 24.285 28.6436 23.4548 27.6475 22.5416C27.1494 22.1264 26.9004 21.7943 26.7344 21.6283C26.4849 21.2962 26.4849 21.0471 26.5684 20.7151C26.6514 20.466 26.9834 20.0508 27.5645 19.3036C27.8965 18.8885 28.0625 18.6395 28.3115 18.3904C29.5571 16.7299 30.1382 15.6506 29.9722 15.1525L29.8892 15.0695C29.8062 14.9865 29.7231 14.9034 29.5571 14.9034C29.3911 14.8204 29.1416 14.8204 28.8926 14.9034L25.7378 14.9034C25.6548 14.9034 25.6548 14.9034 25.4888 14.9034C25.4058 14.9034 25.3228 14.9034 25.3228 14.9034L25.2397 14.9034L25.1567 14.9034L25.0737 14.9865C24.9907 15.0695 24.9907 15.0695 24.9907 15.1525C24.6587 16.0658 24.2437 16.813 23.8281 17.6432C23.5791 18.0583 23.3301 18.4734 23.0811 18.8055C22.832 19.1376 22.666 19.3867 22.5 19.5527C22.334 19.7188 22.168 19.8018 22.085 19.9678C22.002 20.0508 21.8359 20.1339 21.8359 20.0509C21.7529 20.0509 21.6699 20.0508 21.6699 19.9678C21.5869 19.8848 21.5039 19.8018 21.4209 19.7188C21.3379 19.6357 21.3379 19.4697 21.2549 19.3036C21.2549 19.1376 21.2549 18.9716 21.2549 18.8885C21.2549 18.8055 21.2549 18.5565 21.2549 18.3904C21.2549 18.1413 21.2549 17.9753 21.2549 17.8923C21.2549 17.6432 21.2549 17.3111 21.2549 16.979C21.2549 16.6469 21.2549 16.3979 21.2549 16.2318C21.2549 16.0658 21.2549 15.8167 21.2549 15.6506C21.2549 15.4016 21.2549 15.2355 21.2549 15.1525C21.2549 15.0695 21.1719 14.9034 21.1719 14.8204C21.0884 14.7374 21.0054 14.6544 20.9224 14.5714C20.8394 14.4883 20.6733 14.4883 20.5903 14.4053C20.1753 14.3223 19.6772 14.2393 19.0962 14.2393C17.7676 14.2393 16.8545 14.3223 16.5225 14.4883C16.3564 14.5714 16.1904 14.6544 16.1074 14.8204C15.9414 14.9865 15.9414 15.0695 16.0244 15.0695C16.4395 15.1525 16.7715 15.3185 16.9375 15.5676L17.0205 15.7337C17.1035 15.8167 17.1035 15.9827 17.1865 16.2318C17.2695 16.4809 17.2695 16.7299 17.2695 17.062C17.2695 17.5602 17.2695 18.0583 17.2695 18.3904C17.2695 18.8055 17.1865 19.0546 17.1865 19.3036C17.1865 19.5527 17.1035 19.7188 17.0205 19.8018C16.9375 19.9678 16.9375 20.0509 16.8545 20.0509C16.8545 20.0509 16.8545 20.1339 16.7715 20.1339C16.6885 20.1339 16.6055 20.2169 16.4395 20.2169C16.3564 20.2169 16.1904 20.1339 16.1074 20.0509C15.9414 19.9678 15.7749 19.8018 15.6919 19.6357C15.5259 19.4697 15.3599 19.2206 15.1938 18.8885C15.0278 18.5565 14.7788 18.2244 14.6128 17.7262L14.4468 17.3941C14.3638 17.2281 14.1978 16.896 14.0317 16.4809C13.8657 16.0658 13.6997 15.7337 13.5337 15.3186C13.4507 15.1525 13.3677 15.0695 13.2847 14.9865L13.2017 14.9865C13.2017 14.9865 13.1182 14.9034 13.0352 14.9034C12.9521 14.9034 12.8691 14.8204 12.7861 14.8204L9.79736 14.8204C9.46533 14.8204 9.29932 14.9034 9.21631 14.9865L9.1333 15.0695C9.1333 15.0695 9.1333 15.1525 9.1333 15.2355C9.1333 15.3185 9.1333 15.4016 9.21631 15.5676C9.63135 16.5639 10.1294 17.5602 10.6279 18.5565C11.126 19.4697 11.624 20.2999 11.9561 20.8811C12.3711 21.4622 12.7031 22.0434 13.1182 22.5416C13.5337 23.0397 13.7827 23.3718 13.8657 23.5378C14.0317 23.7039 14.1147 23.7869 14.1978 23.8699L14.4468 24.119C14.6128 24.285 14.8618 24.5341 15.1938 24.7832C15.5259 25.0322 15.9414 25.2813 16.3564 25.5304C16.7715 25.7794 17.2695 25.9455 17.7676 26.1115C18.3486 26.2776 18.8472 26.3606 19.3452 26.2776L20.5903 26.2776C20.8394 26.2776 21.0054 26.1945 21.1719 26.0285L21.2549 25.9455C21.2549 25.8625 21.3379 25.8625 21.3379 25.7794C21.3379 25.6964 21.3379 25.6134 21.3379 25.4474C21.3379 25.1153 21.3379 24.8662 21.4209 24.6171C21.5039 24.368 21.5039 24.202 21.5869 24.036C21.6699 23.8699 21.7529 23.7869 21.8359 23.7039C21.9189 23.6208 22.002 23.5378 22.002 23.5378L22.085 23.5378C22.251 23.4548 22.5 23.5378 22.666 23.7039C22.915 23.8699 23.1641 24.119 23.3301 24.368C23.4961 24.6171 23.7451 24.8662 24.0776 25.1983C24.4097 25.5304 24.6587 25.7794 24.8247 25.8625L25.0737 26.0285C25.2397 26.1115 25.4058 26.1945 25.6548 26.2776C25.9038 26.3606 26.0698 26.3606 26.2358 26.3606L29.0586 26.2776C29.3081 26.2776 29.5571 26.1945 29.7231 26.1115C29.8892 26.0285 29.9722 25.9455 29.9722 25.7794C29.9722 25.6964 29.9722 25.5304 29.9722 25.4474C29.8062 25.2813 29.8062 25.1983 29.8062 25.1153Z" fill="#FFFFFF" fill-opacity="1.000000" fill-rule="nonzero"/>
</svg>
