<svg width="20.000000" height="20.000000" viewBox="0 0 20 20" fill="none" xmlns="http://www.w3.org/2000/svg" xmlns:xlink="http://www.w3.org/1999/xlink">
	<desc>
			Created with Pixso.
	</desc>
	<defs/>
	<circle id="Ellipse" cx="10.000000" cy="10.000000" r="10.000000" fill="#FFFFFF" fill-opacity="1.000000"/>
	<path id="Vector" d="M14.9 12.55C14.9 12.51 14.86 12.51 14.86 12.47C14.69 12.14 14.32 11.72 13.82 11.27C13.57 11.06 13.45 10.89 13.36 10.81C13.24 10.64 13.24 10.52 13.28 10.35C13.32 10.23 13.49 10.02 13.78 9.65C13.94 9.44 14.03 9.31 14.15 9.19C14.77 8.36 15.06 7.82 14.98 7.57L14.94 7.53C14.9 7.49 14.86 7.45 14.77 7.45C14.69 7.4 14.57 7.4 14.44 7.45L12.86 7.45C12.82 7.45 12.82 7.45 12.74 7.45C12.7 7.45 12.66 7.45 12.66 7.45L12.61 7.45L12.57 7.45L12.53 7.49C12.49 7.53 12.49 7.53 12.49 7.57C12.32 8.03 12.12 8.4 11.91 8.82C11.78 9.02 11.66 9.23 11.54 9.4C11.41 9.56 11.33 9.69 11.25 9.77C11.16 9.85 11.08 9.9 11.04 9.98C11 10.02 10.91 10.06 10.91 10.02C10.87 10.02 10.83 10.02 10.83 9.98C10.79 9.94 10.75 9.9 10.71 9.85C10.66 9.81 10.66 9.73 10.62 9.65C10.62 9.56 10.62 9.48 10.62 9.44C10.62 9.4 10.62 9.27 10.62 9.19C10.62 9.07 10.62 8.98 10.62 8.94C10.62 8.82 10.62 8.65 10.62 8.48C10.62 8.32 10.62 8.19 10.62 8.11C10.62 8.03 10.62 7.9 10.62 7.82C10.62 7.7 10.62 7.61 10.62 7.57C10.62 7.53 10.58 7.45 10.58 7.4C10.54 7.36 10.5 7.32 10.46 7.28C10.41 7.24 10.33 7.24 10.29 7.2C10.08 7.16 9.83 7.11 9.54 7.11C8.88 7.11 8.42 7.16 8.26 7.24C8.17 7.28 8.09 7.32 8.05 7.4C7.97 7.49 7.97 7.53 8.01 7.53C8.21 7.57 8.38 7.65 8.46 7.78L8.51 7.86C8.55 7.9 8.55 7.99 8.59 8.11C8.63 8.24 8.63 8.36 8.63 8.53C8.63 8.77 8.63 9.02 8.63 9.19C8.63 9.4 8.59 9.52 8.59 9.65C8.59 9.77 8.55 9.85 8.51 9.9C8.46 9.98 8.46 10.02 8.42 10.02C8.42 10.02 8.42 10.06 8.38 10.06C8.34 10.06 8.3 10.1 8.21 10.1C8.17 10.1 8.09 10.06 8.05 10.02C7.97 9.98 7.88 9.9 7.84 9.81C7.76 9.73 7.67 9.61 7.59 9.44C7.51 9.27 7.38 9.11 7.3 8.86L7.22 8.69C7.18 8.61 7.09 8.44 7.01 8.24C6.93 8.03 6.84 7.86 6.76 7.65C6.72 7.57 6.68 7.53 6.64 7.49L6.6 7.49C6.6 7.49 6.55 7.45 6.51 7.45C6.47 7.45 6.43 7.4 6.39 7.4L4.89 7.4C4.73 7.4 4.64 7.45 4.6 7.49L4.56 7.53C4.56 7.53 4.56 7.57 4.56 7.61C4.56 7.65 4.56 7.7 4.6 7.78C4.81 8.28 5.06 8.77 5.31 9.27C5.56 9.73 5.81 10.14 5.97 10.44C6.18 10.73 6.35 11.02 6.55 11.27C6.76 11.51 6.89 11.68 6.93 11.76C7.01 11.85 7.05 11.89 7.09 11.93L7.22 12.05C7.3 12.14 7.43 12.26 7.59 12.39C7.76 12.51 7.97 12.64 8.17 12.76C8.38 12.88 8.63 12.97 8.88 13.05C9.17 13.13 9.42 13.18 9.67 13.13L10.29 13.13C10.41 13.13 10.5 13.09 10.58 13.01L10.62 12.97C10.62 12.93 10.66 12.93 10.66 12.88C10.66 12.84 10.66 12.8 10.66 12.72C10.66 12.55 10.66 12.43 10.71 12.3C10.75 12.18 10.75 12.1 10.79 12.01C10.83 11.93 10.87 11.89 10.91 11.85C10.95 11.81 11 11.76 11 11.76L11.04 11.76C11.12 11.72 11.25 11.76 11.33 11.85C11.45 11.93 11.58 12.05 11.66 12.18C11.74 12.3 11.87 12.43 12.03 12.59C12.2 12.76 12.32 12.88 12.41 12.93L12.53 13.01C12.61 13.05 12.7 13.09 12.82 13.13C12.95 13.18 13.03 13.18 13.11 13.18L14.52 13.13C14.65 13.13 14.77 13.09 14.86 13.05C14.94 13.01 14.98 12.97 14.98 12.88C14.98 12.84 14.98 12.76 14.98 12.72C14.9 12.64 14.9 12.59 14.9 12.55Z" fill="#2B7AF1" fill-opacity="1.000000" fill-rule="nonzero"/>
</svg>
